<svg xmlns="http://www.w3.org/2000/svg" viewBox="0 0 40 20.59"><defs><style>.cls-1{fill:#e8f0ff;}</style></defs><title>Asset 13</title><g id="Layer_2" data-name="Layer 2"><g id="Page_3" data-name="Page 3"><path class="cls-1" d="M34.71,11.82l-.1,0H.54a2.74,2.74,0,0,1-.5,0L0,8.92a2.23,2.23,0,0,1,.36-.05H34.41a1.29,1.29,0,0,0,.28,0s0-.07,0-.09l-.14-.14L28.21,2.31,28,2.14,30,0a1.49,1.49,0,0,1,.18.17C33.26,3.22,40,10.29,40,10.29s-6.74,7.09-9.77,10.12l-.18.18L28,18.54c.06-.07.13-.13.19-.19L34.49,12Z"/></g></g></svg>