<svg xmlns="http://www.w3.org/2000/svg" viewBox="0 0 40 20.59"><defs><style>.cls-1{fill:#3d4a74;}</style></defs><title>Asset 12</title><g id="Layer_2" data-name="Layer 2"><g id="Page_3" data-name="Page 3"><path class="cls-1" d="M5.29,11.82l.1,0H39.46a2.74,2.74,0,0,0,.5,0l0-2.84a2.23,2.23,0,0,0-.36-.05H5.59a1.29,1.29,0,0,1-.28,0s0-.07,0-.09l.14-.14,6.32-6.32L12,2.14,10,0a1.49,1.49,0,0,0-.18.17C6.74,3.22,0,10.29,0,10.29s6.74,7.09,9.77,10.12l.18.18L12,18.54c-.06-.07-.13-.13-.19-.19L5.51,12Z"/></g></g></svg>