<svg xmlns="http://www.w3.org/2000/svg" viewBox="0 0 14.24 14.18"><defs><style>.cls-1{fill:#ed2222;}</style></defs><title>Asset 6</title><g id="Layer_2" data-name="Layer 2"><g id="Pgae_2" data-name="Pgae 2"><path class="cls-1" d="M7.13,14.18A1.36,1.36,0,0,1,6,13.73L.45,8.15a1.35,1.35,0,0,1,0-2l.41-.41a1.34,1.34,0,0,1,1.93,0L7,9.91c.13.13.18.14.32,0C8.65,8.53,10,7.16,11.41,5.78a1.35,1.35,0,0,1,2,0l.4.41a1.33,1.33,0,0,1,0,1.91C13,9,12.08,9.86,11.2,10.74s-2,2-3,3A1.42,1.42,0,0,1,7.13,14.18Z"/><path class="cls-1" d="M7.13,0A1.38,1.38,0,0,0,6,.44L.45,6a1.35,1.35,0,0,0,0,2l.41.41a1.34,1.34,0,0,0,1.93,0L7,4.27c.13-.13.18-.14.32,0L11.41,8.4a1.35,1.35,0,0,0,2,0l.4-.41a1.33,1.33,0,0,0,0-1.91L11.2,3.43c-1-1-2-2-3-3A1.42,1.42,0,0,0,7.13,0Z"/></g></g></svg>