<svg xmlns="http://www.w3.org/2000/svg" viewBox="0 0 50 49.96"><defs><style>.cls-1{fill:#13e8be;}</style></defs><title>Asset 27</title><g id="Layer_2" data-name="Layer 2"><g id="about"><path class="cls-1" d="M35.2,14.82l6.21,6.24,6.12-6.3a7,7,0,0,1,2.23,4.3c.2,2.18.17,4.38.22,6.57,0,1,0,1.92,0,2.88a2.38,2.38,0,0,1-2.59,2.37v-11h-1.7V47.49c0,1.63-.57,2.45-1.71,2.47s-1.78-.82-1.78-2.51V29.4H40.48v1.09q0,8.76,0,17.54c0,.88-.32,1.61-1.15,1.79a2.23,2.23,0,0,1-1.74-.39,2.69,2.69,0,0,1-.55-1.77c0-3.31,0-6.62,0-9.93,0-1.33,0-2.66,0-4a20.94,20.94,0,0,1,.51-5,13.06,13.06,0,0,0-2.79-11.56C33.92,16.1,33.94,15.8,35.2,14.82Z"/><path class="cls-1" d="M24.09,37.89a12.06,12.06,0,0,1,.05-24.11,12.06,12.06,0,1,1-.05,24.11ZM34.45,25.81a10.34,10.34,0,1,0-9.71,10.37A10.42,10.42,0,0,0,34.45,25.81Z"/><path class="cls-1" d="M17.22,8.58h-13A4.17,4.17,0,0,1,0,4.26,4.27,4.27,0,0,1,4.25,0c2.81,0,5.63,0,8.44,0a4.23,4.23,0,0,1,4.5,4C17.32,5.47,17.22,7,17.22,8.58ZM15.45,1.8H1.77V3.36H15.45ZM8.55,5.24H1.77V6.81H8.55Zm3.47,0H10.41v1.6H12Zm1.83,0V6.81h1.57V5.22Z"/><path class="cls-1" d="M41.41,0A5.17,5.17,0,1,1,36.2,5.13,5.17,5.17,0,0,1,41.41,0Z"/><path class="cls-1" d="M9.45,36.64l3.86,3.94L13,40.9,5,49a2.88,2.88,0,0,1-4.14.21A2.81,2.81,0,0,1,1,45.05C3.8,42.23,6.63,39.44,9.45,36.64Z"/><path class="cls-1" d="M44.76,12.72l1.44.84-4.83,4.93-4.8-4.94,1.34-.82c.64,1.74,1.76,2.82,3.65,2.72A3.46,3.46,0,0,0,44.76,12.72Z"/><path class="cls-1" d="M12,36.59,13.7,34.9l1.15,1.44-1.44,1.4Z"/><path class="cls-1" d="M39.68,12.21H43a1.6,1.6,0,0,1-1.63,1.53C40.49,13.76,39.92,13.26,39.68,12.21Z"/><path class="cls-1" d="M32.12,23a7.36,7.36,0,0,1-.06,6.16,8.6,8.6,0,0,1-16.54-3.74,8.6,8.6,0,0,1,16.42-3.17,5,5,0,0,1,.21.78l-3.87-3.67-6,6.08-1.41-1.62-3.72,3.74L22.49,33c3.12-3.11,6.27-6.26,9.4-9.41C32,23.45,32.05,23.21,32.12,23Z"/><path class="cls-1" d="M28.3,21.9l1.37,1.32-7.33,7.33-3-3,1.43-1.39L22.32,28Z"/></g></g></svg>