<svg xmlns="http://www.w3.org/2000/svg" viewBox="0 0 55 53.94"><defs><style>.cls-1{fill:#04d3d1;}</style></defs><title>Asset 28</title><g id="Layer_2" data-name="Layer 2"><g id="about"><path class="cls-1" d="M0,44.31H7.94V39h8.22V32.08h8.13v-5.4h8.07V21.36h7V0H55c-1.38,1.83-2.64,3.55-4,5.24a.88.88,0,0,0,0,1.32c1.34,1.71,2.62,3.46,4,5.31H42.34v9.56h6.84V53.94H0ZM2.73,51H46.19V24.19h-11V29.5H27.07v5.36H19V41.8H10.78v5.36h-8ZM49.18,9c-.69-.89-1.22-1.67-1.85-2.36-.48-.53-.41-.9,0-1.4.62-.71,1.16-1.5,1.78-2.32H42.28V9Z"/></g></g></svg>