<svg xmlns="http://www.w3.org/2000/svg" viewBox="0 0 386.64 911.03"><defs><style>.cls-1{fill:#fff;}</style></defs><g id="Layer_2" data-name="Layer 2"><g id="about"><polygon class="cls-1" points="68.91 0 68.9 54.24 90.48 54.81 90.48 31.72 363.4 58.11 363.4 504.81 363.4 837.34 320.17 829.82 320.17 843.44 320.17 875.97 107.08 856.57 68.86 858.05 68.86 882.29 386.64 911.03 386.64 845.77 386.64 506.3 386.64 31.04 68.91 0"/><polygon class="cls-1" points="0 493.45 69.74 494.94 70.68 564.77 0.72 563.71 0 493.45"/><path d="M32.17,516a3.5,3.5,0,0,0-3.5-3.5H19.45A3.49,3.49,0,0,0,16,516v8.29a3.5,3.5,0,0,0,3.49,3.5h6.94c0,2.77-.07,6.92-.38,7.71s-1.89,4.15-7.8,4.09v4.26s7.19.6,11.64-4.81A11.13,11.13,0,0,0,32,534.78c.17-.7.19-7.09.19-10.41,0,0,0,0,0,0Z"/><path d="M54.72,516a3.5,3.5,0,0,0-3.5-3.5H42a3.5,3.5,0,0,0-3.5,3.5v8.29a3.5,3.5,0,0,0,3.5,3.5h6.93c0,2.77-.07,6.92-.37,7.71s-1.89,4.15-7.8,4.09v4.26s7.19.6,11.64-4.81a11.27,11.27,0,0,0,2.12-4.29c.17-.7.19-7.09.18-10.41a.09.09,0,0,0,0,0Z"/><path d="M357.74,878.72a3.5,3.5,0,0,0,3.22,3.76l9.18.72A3.5,3.5,0,0,0,373.9,880l.65-8.27a3.49,3.49,0,0,0-3.21-3.76l-6.91-.54c.22-2.77.61-6.9,1-7.67s2.21-4,8.1-3.46l.34-4.25s-7.13-1.16-12,3.89a11.3,11.3,0,0,0-2.45,4.1c-.22.69-.74,7.06-1,10.37,0,0,0,0,0,.05Z"/><path d="M335.26,877a3.5,3.5,0,0,0,3.21,3.76l9.19.72a3.5,3.5,0,0,0,3.76-3.21l.65-8.27a3.5,3.5,0,0,0-3.21-3.76l-6.92-.54c.23-2.77.61-6.9,1-7.66s2.21-4,8.1-3.46l.33-4.26s-7.12-1.15-12,3.89a11.12,11.12,0,0,0-2.45,4.11c-.22.68-.74,7.06-1,10.37v0Z"/></g></g></svg>