<svg xmlns="http://www.w3.org/2000/svg" viewBox="0 0 17 17"><defs><style>.cls-1{fill:#04d3d1;}</style></defs><title>Asset 2</title><g id="Layer_2" data-name="Layer 2"><g id="Page1"><path class="cls-1" d="M15.09,0a1.15,1.15,0,0,1,.72.8A4.53,4.53,0,0,1,16,3.11a.65.65,0,0,0,.13.5c1.56,2,1.06,6.16-1.46,7.57a23.68,23.68,0,0,1-2.17,1,18,18,0,0,1,.16,4,.76.76,0,0,1-.79.83.77.77,0,0,1-.78-.84c0-.93,0-1.86,0-2.79a1.83,1.83,0,0,0-.48-1.32.7.7,0,0,1-.21-.83.92.92,0,0,1,.79-.49A14,14,0,0,0,13,10.32a3.17,3.17,0,0,0,2.16-2.23,5.2,5.2,0,0,0,.18-2.35,3.09,3.09,0,0,0-.83-1.61.82.82,0,0,1-.21-.94,2.86,2.86,0,0,0,0-1.77c-.66.32-1.27.58-1.85.91a1.43,1.43,0,0,1-1.11.17,9.67,9.67,0,0,0-4.63,0,1.47,1.47,0,0,1-1.14-.19C5.06,2,4.46,1.73,3.83,1.43a2.36,2.36,0,0,0,0,1.68A.93.93,0,0,1,3.6,4.18a3.51,3.51,0,0,0-.77,3.23c.35,2.18,1.73,3,4,3.32l.36,0c.66.15.9.73.47,1.21a2.08,2.08,0,0,0-.54,1.53c0,.88,0,1.76,0,2.65a.74.74,0,0,1-.77.83.76.76,0,0,1-.78-.83c0-.39,0-.78,0-1.1-.62-.05-1.2-.05-1.76-.15a3.76,3.76,0,0,1-2.15-1.4A3.08,3.08,0,0,0,.37,12.45a.67.67,0,0,1-.31-.89A.78.78,0,0,1,1,11.14a3.52,3.52,0,0,1,1,.54,8.4,8.4,0,0,1,1,1,2.29,2.29,0,0,0,2.32.82c.1,0,.25-.12.26-.2.08-.41.11-.84.17-1.28-.28-.08-.61-.16-.92-.27A4.92,4.92,0,0,1,1.25,7.43a4.88,4.88,0,0,1,.68-3.57,1.32,1.32,0,0,0,.24-1.07,3.76,3.76,0,0,1,.21-2A1.1,1.1,0,0,1,3.11,0h.73l2.5,1a.62.62,0,0,0,.38,0,12.49,12.49,0,0,1,4.72,0,.74.74,0,0,0,.42,0,8.5,8.5,0,0,1,2.51-1Z"/></g></g></svg>