<svg xmlns="http://www.w3.org/2000/svg" viewBox="0 0 17.5 17.53"><defs><style>.cls-1{fill:none;stroke:#04d3d1;stroke-miterlimit:10;stroke-width:0.5px;}</style></defs><title>Asset 3</title><g id="Layer_2" data-name="Layer 2"><g id="Page1"><path class="cls-1" d="M9.37,17.28H5.26c0-4.2.08-8.39-.11-12.6h3.6L8.91,6.2l.24-.27a4.82,4.82,0,0,1,6-.85A4.37,4.37,0,0,1,17,7.77a7.54,7.54,0,0,1,.25,1.94v7.57H13.13v-.21c0-2.26,0-4.51,0-6.77A5.13,5.13,0,0,0,13,9,1.73,1.73,0,0,0,10,8.3a2.21,2.21,0,0,0-.66,1.59q0,3.58,0,7.17Zm4-.28H17c0-.07,0-.13,0-.19,0-2.28,0-4.55,0-6.83a10.74,10.74,0,0,0-.17-1.79,4.35,4.35,0,0,0-.71-1.79,3.7,3.7,0,0,0-3-1.71,4.3,4.3,0,0,0-4,1.82.31.31,0,0,1-.39.14L8.5,5h-3l0,12H9.09v-.22q0-3.5,0-7a2.24,2.24,0,0,1,.62-1.55,2.09,2.09,0,0,1,2.15-.66A1.78,1.78,0,0,1,13.25,9a5.75,5.75,0,0,1,.15,1.37c0,2.11,0,4.23,0,6.35Z"/><path class="cls-1" d="M4.46,17.28H.36V4.68h4.1ZM4.17,17V5H.64V17Z"/><path class="cls-1" d="M2.41,4.38A2,2,0,0,1,.27,2.62a2,2,0,0,1,2-2.36A2,2,0,0,1,4.59,2.18,2,2,0,0,1,2.93,4.32C2.76,4.35,2.58,4.36,2.41,4.38Zm0-3.86c-.15,0-.3,0-.45.06A1.71,1.71,0,0,0,.55,2a1.73,1.73,0,0,0,1,1.87,2.16,2.16,0,0,0,1.1.19A1.77,1.77,0,0,0,4.23,2.87,1.79,1.79,0,0,0,2.43.52Z"/></g></g></svg>