<svg xmlns="http://www.w3.org/2000/svg" viewBox="0 0 60 55.45"><defs><style>.cls-1{fill:none;}.cls-2{fill:#4d4be9;}.cls-3{fill:#4c4ce9;}.cls-4{fill:#4b4de9;}.cls-5{fill:#4a4ee9;}.cls-6{fill:#4a4fea;}.cls-7{fill:#4950ea;}.cls-8{fill:#4851ea;}.cls-9{fill:#4752ea;}.cls-10{fill:#4653ea;}.cls-11{fill:#4554ea;}.cls-12{fill:#4555eb;}.cls-13{fill:#4456eb;}.cls-14{fill:#4357eb;}.cls-15{fill:#4258eb;}.cls-16{fill:#4159eb;}.cls-17{fill:#405aeb;}.cls-18{fill:#3f5beb;}.cls-19{fill:#3f5cec;}.cls-20{fill:#3e5dec;}.cls-21{fill:#3d5eec;}.cls-22{fill:#3c5fec;}.cls-23{fill:#3b60ec;}.cls-24{fill:#3a61ec;}.cls-25{fill:#3962ec;}.cls-26{fill:#3963ed;}.cls-27{fill:#3864ed;}.cls-28{fill:#3765ed;}.cls-29{fill:#3666ed;}.cls-30{fill:#3567ed;}.cls-31{fill:#3468ed;}.cls-32{fill:#3469ee;}.cls-33{fill:#336aee;}.cls-34{fill:#326bee;}.cls-35{fill:#316cee;}.cls-36{fill:#306dee;}.cls-37{fill:#2f6eee;}.cls-38{fill:#2e6fee;}.cls-39{fill:#2e70ef;}.cls-40{fill:#2d71ef;}.cls-41{fill:#2c72ef;}.cls-42{fill:#2b74ef;}.cls-43{fill:#2a75ef;}.cls-44{fill:#2976ef;}.cls-45{fill:#2877ef;}.cls-46{fill:#2878f0;}.cls-47{fill:#2779f0;}.cls-48{fill:#267af0;}.cls-49{fill:#257bf0;}.cls-50{fill:#247cf0;}.cls-51{fill:#237df0;}.cls-52{fill:#237ef1;}.cls-53{fill:#227ff1;}.cls-54{fill:#2180f1;}.cls-55{fill:#2081f1;}.cls-56{fill:#1f82f1;}.cls-57{fill:#1e83f1;}.cls-58{fill:#1d84f1;}.cls-59{fill:#1d85f2;}.cls-60{fill:#1c86f2;}.cls-61{fill:#1b87f2;}.cls-62{fill:#1a88f2;}.cls-63{fill:#1989f2;}.cls-64{fill:#188af2;}.cls-65{fill:#178bf2;}.cls-66{fill:#178cf3;}.cls-67{fill:#168df3;}.cls-68{fill:#158ef3;}.cls-69{fill:#148ff3;}.cls-70{fill:#1390f3;}.cls-71{fill:#1291f3;}.cls-72{fill:#1292f4;}.cls-73{fill:#1193f4;}.cls-74{fill:#1094f4;}.cls-75{fill:#0f95f4;}.cls-76{fill:#0e96f4;}.cls-77{fill:#0d97f4;}.cls-78{fill:#0c98f4;}.cls-79{fill:#0c99f5;}.cls-80{fill:#0b9af5;}.cls-81{fill:#0a9bf5;}.cls-82{fill:#099cf5;}.cls-83{fill:#4c4de9;}.cls-84{fill:#4b4ee8;}.cls-85{fill:#4b4fe8;}.cls-86{fill:#4a50e8;}.cls-87{fill:#4a51e8;}.cls-88{fill:#4952e7;}.cls-89{fill:#4953e7;}.cls-90{fill:#4854e7;}.cls-91{fill:#4855e7;}.cls-92{fill:#4756e6;}.cls-93{fill:#4757e6;}.cls-94{fill:#4658e6;}.cls-95{fill:#4659e6;}.cls-96{fill:#455ae5;}.cls-97{fill:#445be5;}.cls-98{fill:#445ce5;}.cls-99{fill:#435de5;}.cls-100{fill:#435ee5;}.cls-101{fill:#425fe4;}.cls-102{fill:#4260e4;}.cls-103{fill:#4161e4;}.cls-104{fill:#4162e4;}.cls-105{fill:#4063e3;}.cls-106{fill:#4064e3;}.cls-107{fill:#3f65e3;}.cls-108{fill:#3f66e3;}.cls-109{fill:#3e67e2;}.cls-110{fill:#3e68e2;}.cls-111{fill:#3d69e2;}.cls-112{fill:#3d6ae2;}.cls-113{fill:#3c6be2;}.cls-114{fill:#3b6ce1;}.cls-115{fill:#3b6de1;}.cls-116{fill:#3a6ee1;}.cls-117{fill:#3a6fe1;}.cls-118{fill:#3970e0;}.cls-119{fill:#3971e0;}.cls-120{fill:#3872e0;}.cls-121{fill:#3873e0;}.cls-122{fill:#3774df;}.cls-123{fill:#3775df;}.cls-124{fill:#3676df;}.cls-125{fill:#3677df;}.cls-126{fill:#3578de;}.cls-127{fill:#3579de;}.cls-128{fill:#347ade;}.cls-129{fill:#337bde;}.cls-130{fill:#337cde;}.cls-131{fill:#327ddd;}.cls-132{fill:#327edd;}.cls-133{fill:#317fdd;}.cls-134{fill:#3180dd;}.cls-135{fill:#3081dc;}.cls-136{fill:#3082dc;}.cls-137{fill:#2f83dc;}.cls-138{fill:#2f84dc;}.cls-139{fill:#2e85db;}.cls-140{fill:#2e86db;}.cls-141{fill:#2d87db;}.cls-142{fill:#2d88db;}.cls-143{fill:#2c8adb;}.cls-144{fill:#2b8bda;}.cls-145{fill:#2b8cda;}.cls-146{fill:#2a8dda;}.cls-147{fill:#2a8eda;}.cls-148{fill:#298fd9;}.cls-149{fill:#2990d9;}.cls-150{fill:#2891d9;}.cls-151{fill:#2892d9;}.cls-152{fill:#2793d8;}.cls-153{fill:#2794d8;}.cls-154{fill:#2695d8;}.cls-155{fill:#2696d8;}.cls-156{fill:#2597d7;}.cls-157{fill:#2598d7;}.cls-158{fill:#2499d7;}.cls-159{fill:#239ad7;}.cls-160{fill:#239bd7;}.cls-161{fill:#229cd6;}.cls-162{fill:#229dd6;}.cls-163{fill:#219ed6;}.cls-164{fill:#219fd6;}.cls-165{fill:#20a0d5;}.cls-166{fill:#20a1d5;}.cls-167{fill:#1fa2d5;}.cls-168{fill:#1fa3d5;}.cls-169{fill:#1ea4d4;}.cls-170{fill:#1ea5d4;}.cls-171{fill:#1da6d4;}.cls-172{fill:#1da7d4;}.cls-173{fill:#1ca8d3;}.cls-174{fill:#1ca9d3;}.cls-175{fill:#1baad3;}.cls-176{fill:#1aabd3;}.cls-177{fill:#1aacd3;}.cls-178{fill:#19add2;}.cls-179{fill:#19aed2;}.cls-180{fill:#18afd2;}.cls-181{fill:#18b0d2;}.cls-182{fill:#17b1d1;}.cls-183{fill:#17b2d1;}.cls-184{fill:#16b3d1;}.cls-185{fill:#16b4d1;}.cls-186{fill:#15b5d0;}.cls-187{fill:#15b6d0;}.cls-188{fill:#14b7d0;}.cls-189{fill:#14b8d0;}.cls-190{fill:#13b9d0;}.cls-191{fill:#12bacf;}.cls-192{fill:#12bbcf;}.cls-193{fill:#11bccf;}.cls-194{fill:#11bdcf;}.cls-195{fill:#10bece;}.cls-196{fill:#10bfce;}.cls-197{fill:#0fc0ce;}.cls-198{fill:#0fc1ce;}.cls-199{fill:#0ec2cd;}.cls-200{fill:#0ec3cd;}.cls-201{fill:#0dc4cd;}.cls-202{fill:#0dc5cd;}.cls-203{fill:#0cc6cc;}.cls-204{fill:#0cc7cc;}.cls-205{fill:#0bc8cc;}</style></defs><title>Asset 14</title><g id="Layer_2" data-name="Layer 2"><g id="Page4"><polygon class="cls-1" points="24.73 21.16 24.99 21.35 25.25 21.53 25.51 21.72 25.77 21.91 26.03 22.1 26.29 22.28 26.55 22.47 26.81 22.66 27.07 22.85 27.33 23.03 27.59 23.22 27.85 23.41 28.11 23.6 28.37 23.78 28.63 23.97 28.89 24.16 29.15 24.35 29.41 24.53 29.67 24.72 29.93 24.91 30.18 25.1 30.22 25.12 30.45 24.97 30.7 24.8 30.96 24.63 31.22 24.45 31.48 24.28 31.74 24.11 32 23.93 32.26 23.76 32.52 23.59 32.78 23.41 33.04 23.24 33.3 23.07 33.56 22.89 33.82 22.72 34.08 22.55 34.34 22.38 34.6 22.2 34.86 22.03 35.12 21.86 35.38 21.68 35.64 21.51 35.9 21.34 36.16 21.16 36.25 21.1 36.25 21.07 36.16 21.01 35.9 20.84 35.64 20.67 35.38 20.5 35.12 20.33 34.86 20.16 34.6 19.98 34.34 19.81 34.08 19.64 33.82 19.47 33.56 19.3 33.3 19.13 33.04 18.96 32.78 18.79 32.52 18.62 32.26 18.45 32 18.28 31.74 18.11 31.48 17.94 31.22 17.77 30.96 17.59 30.7 17.42 30.45 17.25 30.22 17.11 30.18 17.13 29.93 17.3 29.67 17.47 29.41 17.64 29.15 17.82 28.89 17.99 28.63 18.16 28.37 18.33 28.11 18.5 27.85 18.67 27.59 18.85 27.33 19.02 27.07 19.19 26.81 19.36 26.55 19.53 26.29 19.7 26.03 19.88 25.77 20.05 25.51 20.22 25.25 20.39 24.99 20.56 24.73 20.73 24.47 20.91 24.43 20.94 24.47 20.97 24.73 21.16"/><path class="cls-2" d="M16.75,47.53a5.26,5.26,0,0,0-.34,1.87,5.19,5.19,0,0,0,.34,1.85Z"/><path class="cls-3" d="M17.08,52V46.79a4.91,4.91,0,0,0-.33.74v3.72A5,5,0,0,0,17.08,52Z"/><path class="cls-4" d="M17.42,52.52V46.27a5.8,5.8,0,0,0-.34.52V52A5.8,5.8,0,0,0,17.42,52.52Z"/><path class="cls-5" d="M17.75,53V45.84c-.11.14-.23.28-.33.43v6.25C17.52,52.67,17.64,52.81,17.75,53Z"/><path class="cls-6" d="M18.09,53.29V45.5c-.12.11-.23.22-.34.34V53Z"/><path class="cls-7" d="M18.43,53.59V45.21c-.12.09-.23.19-.34.29v7.79A3.17,3.17,0,0,0,18.43,53.59Z"/><path class="cls-8" d="M18.76,53.84V45a2.6,2.6,0,0,0-.33.25v8.38A4.08,4.08,0,0,0,18.76,53.84Z"/><path class="cls-9" d="M19.1,54.05V44.74l-.34.22v8.88A3.87,3.87,0,0,0,19.1,54.05Z"/><path class="cls-10" d="M19.43,54.23V44.56l-.33.18v9.31Z"/><path class="cls-11" d="M19.77,54.38v-25h0L19.5,44.53l-.07,0v9.67Z"/><path class="cls-12" d="M20.1,54.5V29.57l-.33-.2v25Z"/><path class="cls-13" d="M20.44,54.6V29.78l-.34-.21V54.5Z"/><path class="cls-14" d="M20.77,54.68V30l-.33-.2V54.6Z"/><path class="cls-15" d="M21.11,54.73V30.19L20.77,30v24.7Z"/><path class="cls-16" d="M21.44,54.76V30.39l-.33-.2V54.73C21.22,54.75,21.33,54.75,21.44,54.76Z"/><path class="cls-17" d="M21.78,54.78V30.6l-.34-.21V54.76Z"/><path class="cls-18" d="M21.79,54.78l.33,0v-24l-.34-.2V54.78Z"/><path class="cls-19" d="M22.45,54.74V31l-.33-.21v24Z"/><path class="cls-20" d="M22.79,54.68V31.21l-.34-.2V54.74Z"/><path class="cls-21" d="M23.12,54.61V31.42l-.33-.21V54.68Z"/><path class="cls-22" d="M23.46,54.51V31.62l-.34-.2V54.61Z"/><path class="cls-23" d="M23.79,54.39V31.82l-.33-.2V54.51Z"/><path class="cls-24" d="M24.13,54.24V44.55l-.05,0,.05-1.11V32l-.34-.21V54.39A3.49,3.49,0,0,0,24.13,54.24Z"/><polygon class="cls-25" points="24.42 36.27 24.46 36.3 24.46 32.23 24.13 32.03 24.13 43.42 24.42 36.27"/><path class="cls-25" d="M24.46,54.07V44.73l-.33-.18v9.69Z"/><polygon class="cls-26" points="24.8 36.52 24.8 32.44 24.46 32.23 24.46 36.3 24.8 36.52"/><path class="cls-26" d="M24.8,53.86V44.94a2.39,2.39,0,0,0-.34-.21v9.34A3.87,3.87,0,0,0,24.8,53.86Z"/><polygon class="cls-27" points="25.14 36.73 25.14 32.65 24.8 32.44 24.8 36.52 25.14 36.73"/><path class="cls-27" d="M25.14,53.61V45.18l-.34-.24v8.92Z"/><path class="cls-28" d="M25.47,53.32V45.47l-.33-.29v8.43Z"/><polygon class="cls-28" points="25.47 36.95 25.47 32.85 25.14 32.65 25.14 36.73 25.47 36.95"/><path class="cls-29" d="M25.81,53V45.82c-.11-.12-.22-.24-.34-.35v7.85C25.59,53.21,25.7,53.1,25.81,53Z"/><polygon class="cls-29" points="25.81 37.16 25.81 33.05 25.47 32.85 25.47 36.95 25.81 37.16"/><polygon class="cls-30" points="26.14 37.38 26.14 33.26 25.81 33.05 25.81 37.16 26.14 37.38"/><path class="cls-30" d="M26.14,52.56V46.23c-.1-.14-.22-.28-.33-.41V53C25.92,52.84,26,52.7,26.14,52.56Z"/><path class="cls-31" d="M26.48,52V46.75a5.8,5.8,0,0,0-.34-.52v6.33A5.8,5.8,0,0,0,26.48,52Z"/><polygon class="cls-31" points="26.48 37.59 26.48 33.47 26.14 33.26 26.14 37.38 26.48 37.59"/><path class="cls-32" d="M26.81,51.33V47.46a4.58,4.58,0,0,0-.33-.71V52A4.58,4.58,0,0,0,26.81,51.33Z"/><polygon class="cls-32" points="26.81 37.8 26.81 33.67 26.48 33.47 26.48 37.59 26.81 37.8"/><polygon class="cls-33" points="27.15 38.02 27.15 33.87 26.81 33.67 26.81 37.8 27.15 38.02"/><path class="cls-33" d="M27.15,49.93v-1a5.24,5.24,0,0,0-.34-1.43v3.87A5.41,5.41,0,0,0,27.15,49.93Z"/><polygon class="cls-34" points="27.48 38.23 27.48 34.08 27.15 33.87 27.15 38.02 27.48 38.23"/><path class="cls-34" d="M27.18,49.4c0-.18,0-.35,0-.51v1A4.58,4.58,0,0,0,27.18,49.4Z"/><polygon class="cls-35" points="27.82 38.45 27.82 34.28 27.48 34.08 27.48 38.23 27.82 38.45"/><polygon class="cls-36" points="28.16 38.66 28.16 34.49 27.82 34.28 27.82 38.45 28.16 38.66"/><polygon class="cls-37" points="28.49 38.88 28.49 34.69 28.16 34.49 28.16 38.66 28.49 38.88"/><polygon class="cls-38" points="28.83 39.09 28.83 34.9 28.49 34.69 28.49 38.88 28.83 39.09"/><polygon class="cls-39" points="29.16 39.31 29.16 35.1 28.83 34.9 28.83 39.09 29.16 39.31"/><polygon class="cls-40" points="29.5 39.52 29.5 35.31 29.16 35.1 29.16 39.31 29.5 39.52"/><polygon class="cls-41" points="29.83 39.74 29.83 35.51 29.5 35.31 29.5 39.52 29.83 39.74"/><polygon class="cls-42" points="30.17 39.95 30.17 35.72 29.83 35.51 29.83 39.74 30.17 39.95"/><polygon class="cls-43" points="30.28 40.02 30.5 39.88 30.5 35.65 30.28 35.78 30.17 35.72 30.17 39.95 30.28 40.02"/><polygon class="cls-44" points="30.84 39.66 30.84 35.44 30.5 35.65 30.5 39.88 30.84 39.66"/><polygon class="cls-45" points="31.17 39.45 31.17 35.24 30.84 35.44 30.84 39.66 31.17 39.45"/><polygon class="cls-46" points="31.51 39.23 31.51 35.03 31.17 35.24 31.17 39.45 31.51 39.23"/><polygon class="cls-47" points="31.84 39.02 31.84 34.83 31.51 35.03 31.51 39.23 31.84 39.02"/><polygon class="cls-48" points="32.18 38.8 32.18 34.62 31.84 34.83 31.84 39.02 32.18 38.8"/><polygon class="cls-49" points="32.52 38.59 32.52 34.42 32.18 34.62 32.18 38.8 32.52 38.59"/><path class="cls-50" d="M32.82,49.4a4.58,4.58,0,0,0,0,.53v-1C32.84,49.05,32.82,49.22,32.82,49.4Z"/><polygon class="cls-50" points="32.85 38.37 32.85 34.21 32.52 34.42 32.52 38.59 32.85 38.37"/><polygon class="cls-51" points="33.19 38.16 33.19 34.01 32.85 34.21 32.85 38.37 33.19 38.16"/><path class="cls-51" d="M32.85,48.89v1a5.41,5.41,0,0,0,.34,1.4V47.46A5.24,5.24,0,0,0,32.85,48.89Z"/><polygon class="cls-52" points="33.52 37.94 33.52 33.8 33.19 34.01 33.19 38.16 33.52 37.94"/><path class="cls-52" d="M33.19,47.46v3.87a4.58,4.58,0,0,0,.33.71V46.75A4.58,4.58,0,0,0,33.19,47.46Z"/><path class="cls-53" d="M33.52,46.75V52a5.8,5.8,0,0,0,.34.52V46.23A5.8,5.8,0,0,0,33.52,46.75Z"/><polygon class="cls-53" points="33.86 37.73 33.86 33.6 33.52 33.8 33.52 37.94 33.86 37.73"/><polygon class="cls-54" points="34.19 37.51 34.19 33.39 33.86 33.6 33.86 37.73 34.19 37.51"/><path class="cls-54" d="M33.86,46.23v6.33c.1.14.22.28.33.42V45.82C34.08,46,34,46.09,33.86,46.23Z"/><polygon class="cls-55" points="34.53 37.3 34.53 33.19 34.19 33.39 34.19 37.51 34.53 37.3"/><path class="cls-55" d="M34.19,45.82V53c.11.12.22.23.34.34V45.47C34.41,45.58,34.3,45.7,34.19,45.82Z"/><polygon class="cls-56" points="34.87 37.08 34.87 32.98 34.53 33.19 34.53 37.3 34.87 37.08"/><path class="cls-56" d="M34.53,45.47v7.85l.33.29V45.18Z"/><path class="cls-57" d="M34.86,45.18v8.43l.34.25V44.94Z"/><polygon class="cls-57" points="35.2 36.87 35.2 32.78 34.87 32.98 34.87 37.08 35.2 36.87"/><polygon class="cls-58" points="35.54 36.65 35.54 32.57 35.2 32.78 35.2 36.87 35.54 36.65"/><path class="cls-58" d="M35.2,44.94v8.92a3.87,3.87,0,0,0,.34.21V44.73A2.39,2.39,0,0,0,35.2,44.94Z"/><path class="cls-59" d="M35.54,44.73v9.34l.33.17V44.55Z"/><polygon class="cls-59" points="35.87 36.44 35.87 32.37 35.54 32.57 35.54 36.65 35.87 36.44"/><path class="cls-60" d="M35.92,44.53l-.05,0v9.69a3.49,3.49,0,0,0,.34.15V37.26Z"/><polygon class="cls-60" points="36.21 36.22 36.21 32.16 35.87 32.37 35.87 36.44 36.21 36.22"/><path class="cls-61" d="M36.25,36.2l0,1.06V54.39l.33.12V32l-.33.2v4.06Z"/><path class="cls-62" d="M36.88,54.61V31.75l-.34.21V54.51Z"/><path class="cls-63" d="M37.21,54.68V31.55l-.33.2V54.61Z"/><path class="cls-64" d="M37.55,54.74V31.34l-.34.21V54.68Z"/><path class="cls-65" d="M37.88,54.76V31.14l-.33.2v23.4Z"/><path class="cls-66" d="M38.21,54.78h0V30.93l-.34.21V54.76Z"/><path class="cls-67" d="M38.56,54.76v-24l-.34.2V54.78Z"/><path class="cls-68" d="M38.89,54.73V30.52l-.33.21v24C38.67,54.75,38.78,54.75,38.89,54.73Z"/><path class="cls-69" d="M39.23,54.68V30.32l-.34.2V54.73Z"/><path class="cls-70" d="M39.56,54.6V30.11l-.33.21V54.68Z"/><path class="cls-71" d="M39.9,54.5V29.91l-.34.2V54.6Z"/><path class="cls-72" d="M40.23,54.38V29.7l-.33.21V54.5Z"/><path class="cls-73" d="M40.57,54.23V44.56l-.07,0,.07-4.09V29.5l-.34.2V54.38Z"/><polygon class="cls-74" points="40.76 29.38 40.57 29.5 40.57 40.44 40.76 29.38"/><path class="cls-74" d="M40.9,54.05V44.74l-.33-.18v9.67Z"/><path class="cls-75" d="M41.24,53.84V45l-.34-.22v9.31A3.87,3.87,0,0,0,41.24,53.84Z"/><path class="cls-76" d="M41.57,53.59V45.21a2.6,2.6,0,0,0-.33-.25v8.88A4.08,4.08,0,0,0,41.57,53.59Z"/><path class="cls-77" d="M41.91,53.29V45.5c-.11-.1-.22-.2-.34-.29v8.38A3.17,3.17,0,0,0,41.91,53.29Z"/><path class="cls-78" d="M42.25,53V45.84c-.11-.12-.22-.23-.34-.34v7.79C42,53.18,42.14,53.07,42.25,53Z"/><path class="cls-79" d="M42.58,52.52V46.27c-.1-.15-.22-.29-.33-.43V53C42.36,52.81,42.48,52.67,42.58,52.52Z"/><path class="cls-80" d="M42.92,52V46.79a5.8,5.8,0,0,0-.34-.52v6.25A5.8,5.8,0,0,0,42.92,52Z"/><path class="cls-81" d="M43.25,51.25V47.53a4.91,4.91,0,0,0-.33-.74V52A5,5,0,0,0,43.25,51.25Z"/><path class="cls-82" d="M43.59,49.4a5.26,5.26,0,0,0-.34-1.87v3.72A5.19,5.19,0,0,0,43.59,49.4Z"/><polygon class="cls-2" points="19.84 22.86 20.06 23 20.06 19.52 19.8 19.69 19.84 21.11 19.84 22.86"/><polygon class="cls-3" points="20.32 23.16 20.32 19.36 20.06 19.52 20.06 23 20.32 23.16"/><polygon class="cls-4" points="20.58 23.32 20.58 19.19 20.32 19.36 20.32 23.16 20.58 23.32"/><polygon class="cls-5" points="20.84 23.47 20.84 19.02 20.58 19.19 20.58 23.32 20.84 23.47"/><polygon class="cls-6" points="21.1 23.63 21.1 18.86 20.84 19.02 20.84 23.47 21.1 23.63"/><polygon class="cls-7" points="21.36 23.79 21.36 18.69 21.1 18.86 21.1 23.63 21.36 23.79"/><polygon class="cls-8" points="21.62 23.95 21.62 18.52 21.36 18.69 21.36 23.79 21.62 23.95"/><polygon class="cls-9" points="21.88 24.11 21.88 18.35 21.62 18.52 21.62 23.95 21.88 24.11"/><polygon class="cls-10" points="22.14 24.27 22.14 18.19 21.88 18.35 21.88 24.11 22.14 24.27"/><polygon class="cls-11" points="22.4 24.43 22.4 18.02 22.14 18.19 22.14 24.27 22.4 24.43"/><polygon class="cls-12" points="22.66 24.59 22.66 17.85 22.4 18.02 22.4 24.43 22.66 24.59"/><polygon class="cls-13" points="22.92 24.75 22.92 17.69 22.66 17.85 22.66 24.59 22.92 24.75"/><polygon class="cls-14" points="23.18 24.91 23.18 17.52 22.92 17.69 22.92 24.75 23.18 24.91"/><polygon class="cls-15" points="23.43 25.07 23.43 17.35 23.18 17.52 23.18 24.91 23.43 25.07"/><polygon class="cls-16" points="23.69 25.23 23.69 17.18 23.43 17.35 23.43 25.07 23.69 25.23"/><polygon class="cls-17" points="23.95 25.39 23.95 17.02 23.69 17.18 23.69 25.23 23.95 25.39"/><polygon class="cls-18" points="24.21 25.55 24.21 16.85 23.95 17.02 23.95 25.39 24.21 25.55"/><polygon class="cls-19" points="24.47 25.71 24.47 25.12 24.43 25.12 24.43 20.94 24.43 17.11 24.47 17.11 24.47 16.68 24.21 16.85 24.21 25.55 24.47 25.71"/><polygon class="cls-19" points="24.47 17.11 24.43 17.11 24.43 20.94 24.47 20.91 24.47 17.11"/><polygon class="cls-19" points="24.43 20.94 24.43 25.12 24.47 25.12 24.47 20.97 24.43 20.94"/><polygon class="cls-20" points="24.47 25.12 24.47 25.71 24.73 25.87 24.73 25.12 24.47 25.12"/><polygon class="cls-20" points="24.73 17.11 24.73 16.52 24.47 16.68 24.47 17.11 24.73 17.11"/><polygon class="cls-20" points="24.73 25.12 24.73 21.16 24.47 20.97 24.47 25.12 24.73 25.12"/><polygon class="cls-20" points="24.73 20.73 24.73 17.11 24.47 17.11 24.47 20.91 24.73 20.73"/><polygon class="cls-21" points="24.99 17.11 24.99 16.35 24.73 16.52 24.73 17.11 24.99 17.11"/><polygon class="cls-21" points="24.73 25.12 24.73 25.87 24.99 26.03 24.99 25.12 24.73 25.12"/><polygon class="cls-21" points="24.73 21.16 24.73 25.12 24.99 25.12 24.99 21.35 24.73 21.16"/><polygon class="cls-21" points="24.99 20.56 24.99 17.11 24.73 17.11 24.73 20.73 24.99 20.56"/><polygon class="cls-22" points="24.99 25.12 24.99 26.03 25.25 26.19 25.25 25.12 24.99 25.12"/><polygon class="cls-22" points="25.25 17.11 25.25 16.18 24.99 16.35 24.99 17.11 25.25 17.11"/><polygon class="cls-22" points="24.99 21.35 24.99 25.12 25.25 25.12 25.25 21.53 24.99 21.35"/><polygon class="cls-22" points="25.25 20.39 25.25 17.11 24.99 17.11 24.99 20.56 25.25 20.39"/><polygon class="cls-23" points="25.25 25.12 25.25 26.19 25.51 26.35 25.51 25.12 25.25 25.12"/><polygon class="cls-23" points="25.51 17.11 25.51 16.02 25.25 16.18 25.25 17.11 25.51 17.11"/><polygon class="cls-23" points="25.51 20.22 25.51 17.11 25.25 17.11 25.25 20.39 25.51 20.22"/><polygon class="cls-23" points="25.25 21.53 25.25 25.12 25.51 25.12 25.51 21.72 25.25 21.53"/><polygon class="cls-24" points="25.51 25.12 25.51 26.35 25.77 26.51 25.77 25.12 25.51 25.12"/><polygon class="cls-24" points="25.77 17.11 25.77 15.85 25.51 16.02 25.51 17.11 25.77 17.11"/><polygon class="cls-24" points="25.77 20.05 25.77 17.11 25.51 17.11 25.51 20.22 25.77 20.05"/><polygon class="cls-24" points="25.51 21.72 25.51 25.12 25.77 25.12 25.77 21.91 25.51 21.72"/><polygon class="cls-25" points="26.03 17.11 26.03 15.68 25.77 15.85 25.77 17.11 26.03 17.11"/><polygon class="cls-25" points="25.77 25.12 25.77 26.51 26.03 26.67 26.03 25.12 25.77 25.12"/><polygon class="cls-25" points="25.77 21.91 25.77 25.12 26.03 25.12 26.03 22.1 25.77 21.91"/><polygon class="cls-25" points="26.03 19.88 26.03 17.11 25.77 17.11 25.77 20.05 26.03 19.88"/><polygon class="cls-26" points="26.03 25.12 26.03 26.67 26.29 26.83 26.29 25.12 26.03 25.12"/><polygon class="cls-26" points="26.29 17.11 26.29 15.51 26.03 15.68 26.03 17.11 26.29 17.11"/><polygon class="cls-26" points="26.03 22.1 26.03 25.12 26.29 25.12 26.29 22.28 26.03 22.1"/><polygon class="cls-26" points="26.29 19.7 26.29 17.11 26.03 17.11 26.03 19.88 26.29 19.7"/><polygon class="cls-27" points="26.29 25.12 26.29 26.83 26.55 26.99 26.55 25.12 26.29 25.12"/><polygon class="cls-27" points="26.55 17.11 26.55 15.35 26.29 15.51 26.29 17.11 26.55 17.11"/><polygon class="cls-27" points="26.55 19.53 26.55 17.11 26.29 17.11 26.29 19.7 26.55 19.53"/><polygon class="cls-27" points="26.29 22.28 26.29 25.12 26.55 25.12 26.55 22.47 26.29 22.28"/><polygon class="cls-28" points="26.55 25.12 26.55 26.99 26.81 27.15 26.81 25.12 26.55 25.12"/><polygon class="cls-28" points="26.81 17.11 26.81 15.18 26.55 15.35 26.55 17.11 26.81 17.11"/><polygon class="cls-28" points="26.55 22.47 26.55 25.12 26.81 25.12 26.81 22.66 26.55 22.47"/><polygon class="cls-28" points="26.81 19.36 26.81 17.11 26.55 17.11 26.55 19.53 26.81 19.36"/><polygon class="cls-29" points="27.07 17.11 27.07 15.01 26.81 15.18 26.81 17.11 27.07 17.11"/><polygon class="cls-29" points="26.81 25.12 26.81 27.15 27.07 27.31 27.07 25.12 26.81 25.12"/><polygon class="cls-29" points="27.07 19.19 27.07 17.11 26.81 17.11 26.81 19.36 27.07 19.19"/><polygon class="cls-29" points="26.81 22.66 26.81 25.12 27.07 25.12 27.07 22.85 26.81 22.66"/><polygon class="cls-30" points="27.07 25.12 27.07 27.31 27.33 27.47 27.33 25.12 27.07 25.12"/><polygon class="cls-30" points="27.33 17.11 27.33 14.85 27.07 15.01 27.07 17.11 27.33 17.11"/><polygon class="cls-30" points="27.33 19.02 27.33 17.11 27.07 17.11 27.07 19.19 27.33 19.02"/><polygon class="cls-30" points="27.07 22.85 27.07 25.12 27.33 25.12 27.33 23.03 27.07 22.85"/><polygon class="cls-31" points="27.33 25.12 27.33 27.47 27.59 27.63 27.59 25.12 27.33 25.12"/><polygon class="cls-31" points="27.59 17.11 27.59 14.68 27.33 14.85 27.33 17.11 27.59 17.11"/><polygon class="cls-31" points="27.33 23.03 27.33 25.12 27.59 25.12 27.59 23.22 27.33 23.03"/><polygon class="cls-31" points="27.59 18.85 27.59 17.11 27.33 17.11 27.33 19.02 27.59 18.85"/><polygon class="cls-32" points="27.85 17.11 27.85 14.51 27.59 14.68 27.59 17.11 27.85 17.11"/><polygon class="cls-32" points="27.59 25.12 27.59 27.63 27.85 27.79 27.85 25.12 27.59 25.12"/><polygon class="cls-32" points="27.59 23.22 27.59 25.12 27.85 25.12 27.85 23.41 27.59 23.22"/><polygon class="cls-32" points="27.85 18.67 27.85 17.11 27.59 17.11 27.59 18.85 27.85 18.67"/><polygon class="cls-33" points="27.85 25.12 27.85 27.79 28.11 27.95 28.11 25.12 27.85 25.12"/><polygon class="cls-33" points="28.11 17.11 28.11 14.34 27.85 14.51 27.85 17.11 28.11 17.11"/><polygon class="cls-33" points="27.85 23.41 27.85 25.12 28.11 25.12 28.11 23.6 27.85 23.41"/><polygon class="cls-33" points="28.11 18.5 28.11 17.11 27.85 17.11 27.85 18.67 28.11 18.5"/><polygon class="cls-34" points="28.37 17.11 28.37 14.18 28.11 14.34 28.11 17.11 28.37 17.11"/><polygon class="cls-34" points="28.11 25.12 28.11 27.95 28.37 28.11 28.37 25.12 28.11 25.12"/><polygon class="cls-34" points="28.11 23.6 28.11 25.12 28.37 25.12 28.37 23.78 28.11 23.6"/><polygon class="cls-34" points="28.37 18.33 28.37 17.11 28.11 17.11 28.11 18.5 28.37 18.33"/><polygon class="cls-35" points="28.37 25.12 28.37 28.11 28.63 28.27 28.63 25.12 28.37 25.12"/><polygon class="cls-35" points="28.63 17.11 28.63 14.01 28.37 14.18 28.37 17.11 28.63 17.11"/><polygon class="cls-35" points="28.37 23.78 28.37 25.12 28.63 25.12 28.63 23.97 28.37 23.78"/><polygon class="cls-35" points="28.63 18.16 28.63 17.11 28.37 17.11 28.37 18.33 28.63 18.16"/><polygon class="cls-36" points="28.89 17.11 28.89 13.84 28.63 14.01 28.63 17.11 28.89 17.11"/><polygon class="cls-36" points="28.63 25.12 28.63 28.27 28.89 28.43 28.89 25.12 28.63 25.12"/><polygon class="cls-36" points="28.89 17.99 28.89 17.11 28.63 17.11 28.63 18.16 28.89 17.99"/><polygon class="cls-36" points="28.63 23.97 28.63 25.12 28.89 25.12 28.89 24.16 28.63 23.97"/><polygon class="cls-37" points="28.89 25.12 28.89 28.43 29.15 28.58 29.15 25.12 28.89 25.12"/><polygon class="cls-37" points="29.15 17.11 29.15 13.68 28.89 13.84 28.89 17.11 29.15 17.11"/><polygon class="cls-37" points="29.15 17.82 29.15 17.11 28.89 17.11 28.89 17.99 29.15 17.82"/><polygon class="cls-37" points="28.89 24.16 28.89 25.12 29.15 25.12 29.15 24.35 28.89 24.16"/><polygon class="cls-38" points="29.15 25.12 29.15 28.58 29.41 28.74 29.41 25.12 29.15 25.12"/><polygon class="cls-38" points="29.41 17.11 29.41 13.51 29.15 13.68 29.15 17.11 29.41 17.11"/><polygon class="cls-38" points="29.15 24.35 29.15 25.12 29.41 25.12 29.41 24.53 29.15 24.35"/><polygon class="cls-38" points="29.41 17.64 29.41 17.11 29.15 17.11 29.15 17.82 29.41 17.64"/><polygon class="cls-39" points="29.41 25.12 29.41 28.74 29.67 28.9 29.67 25.12 29.41 25.12"/><polygon class="cls-39" points="29.67 17.11 29.67 13.34 29.41 13.51 29.41 17.11 29.67 17.11"/><polygon class="cls-39" points="29.67 17.47 29.67 17.11 29.41 17.11 29.41 17.64 29.67 17.47"/><polygon class="cls-39" points="29.41 24.53 29.41 25.12 29.67 25.12 29.67 24.72 29.41 24.53"/><polygon class="cls-40" points="29.67 25.12 29.67 28.9 29.93 29.06 29.93 25.12 29.67 25.12"/><polygon class="cls-40" points="29.93 17.11 29.93 13.17 29.67 13.34 29.67 17.11 29.93 17.11"/><polygon class="cls-40" points="29.67 24.72 29.67 25.12 29.93 25.12 29.93 24.91 29.67 24.72"/><polygon class="cls-40" points="29.93 17.3 29.93 17.11 29.67 17.11 29.67 17.47 29.93 17.3"/><polygon class="cls-41" points="29.93 25.12 29.93 29.06 30.18 29.22 30.18 25.12 29.93 25.12"/><polygon class="cls-41" points="30.18 17.11 30.18 13.01 29.93 13.17 29.93 17.11 30.18 17.11"/><polygon class="cls-41" points="30.18 17.13 30.18 17.11 29.93 17.11 29.93 17.3 30.18 17.13"/><polygon class="cls-41" points="29.93 24.91 29.93 25.12 30.18 25.12 30.18 25.1 29.93 24.91"/><polygon class="cls-42" points="30.22 17.11 30.45 17.11 30.45 13.13 30.22 12.98 30.18 13.01 30.18 17.11 30.22 17.11"/><polygon class="cls-42" points="30.22 25.12 30.18 25.12 30.18 29.22 30.22 29.25 30.45 29.11 30.45 25.12 30.22 25.12"/><polygon class="cls-42" points="30.22 25.12 30.45 25.12 30.45 24.97 30.22 25.12"/><polygon class="cls-42" points="30.18 25.12 30.22 25.12 30.18 25.1 30.18 25.12"/><polygon class="cls-42" points="30.45 17.25 30.45 17.11 30.22 17.11 30.45 17.25"/><polygon class="cls-42" points="30.22 17.11 30.18 17.11 30.18 17.13 30.22 17.11"/><polygon class="cls-43" points="30.7 17.11 30.7 13.29 30.45 13.13 30.45 17.11 30.7 17.11"/><polygon class="cls-43" points="30.45 25.12 30.45 29.11 30.7 28.96 30.7 25.12 30.45 25.12"/><polygon class="cls-43" points="30.7 17.42 30.7 17.11 30.45 17.11 30.45 17.25 30.7 17.42"/><polygon class="cls-43" points="30.45 24.97 30.45 25.12 30.7 25.12 30.7 24.8 30.45 24.97"/><polygon class="cls-44" points="30.7 25.12 30.7 28.96 30.96 28.8 30.96 25.12 30.7 25.12"/><polygon class="cls-44" points="30.96 17.11 30.96 13.46 30.7 13.29 30.7 17.11 30.96 17.11"/><polygon class="cls-44" points="30.7 24.8 30.7 25.12 30.96 25.12 30.96 24.63 30.7 24.8"/><polygon class="cls-44" points="30.96 17.59 30.96 17.11 30.7 17.11 30.7 17.42 30.96 17.59"/><polygon class="cls-45" points="30.96 25.12 30.96 28.8 31.22 28.65 31.22 25.12 30.96 25.12"/><polygon class="cls-45" points="31.22 17.11 31.22 13.62 30.96 13.46 30.96 17.11 31.22 17.11"/><polygon class="cls-45" points="31.22 17.77 31.22 17.11 30.96 17.11 30.96 17.59 31.22 17.77"/><polygon class="cls-45" points="30.96 24.63 30.96 25.12 31.22 25.12 31.22 24.45 30.96 24.63"/><polygon class="cls-46" points="31.22 25.12 31.22 28.65 31.48 28.49 31.48 25.12 31.22 25.12"/><polygon class="cls-46" points="31.48 17.11 31.48 13.79 31.22 13.62 31.22 17.11 31.48 17.11"/><polygon class="cls-46" points="31.22 24.45 31.22 25.12 31.48 25.12 31.48 24.28 31.22 24.45"/><polygon class="cls-46" points="31.48 17.94 31.48 17.11 31.22 17.11 31.22 17.77 31.48 17.94"/><polygon class="cls-47" points="31.48 25.12 31.48 28.49 31.74 28.34 31.74 25.12 31.48 25.12"/><polygon class="cls-47" points="31.74 17.11 31.74 13.95 31.48 13.79 31.48 17.11 31.74 17.11"/><polygon class="cls-47" points="31.74 18.11 31.74 17.11 31.48 17.11 31.48 17.94 31.74 18.11"/><polygon class="cls-47" points="31.48 24.28 31.48 25.12 31.74 25.12 31.74 24.11 31.48 24.28"/><polygon class="cls-48" points="32 17.11 32 14.12 31.74 13.95 31.74 17.11 32 17.11"/><polygon class="cls-48" points="31.74 25.12 31.74 28.34 32 28.18 32 25.12 31.74 25.12"/><polygon class="cls-48" points="32 18.28 32 17.11 31.74 17.11 31.74 18.11 32 18.28"/><polygon class="cls-48" points="31.74 24.11 31.74 25.12 32 25.12 32 23.93 31.74 24.11"/><polygon class="cls-49" points="32 25.12 32 28.18 32.26 28.03 32.26 25.12 32 25.12"/><polygon class="cls-49" points="32.26 17.11 32.26 14.29 32 14.12 32 17.11 32.26 17.11"/><polygon class="cls-49" points="32.26 18.45 32.26 17.11 32 17.11 32 18.28 32.26 18.45"/><polygon class="cls-49" points="32 23.93 32 25.12 32.26 25.12 32.26 23.76 32 23.93"/><polygon class="cls-50" points="32.26 25.12 32.26 28.03 32.52 27.87 32.52 25.12 32.26 25.12"/><polygon class="cls-50" points="32.52 17.11 32.52 14.45 32.26 14.29 32.26 17.11 32.52 17.11"/><polygon class="cls-50" points="32.26 23.76 32.26 25.12 32.52 25.12 32.52 23.59 32.26 23.76"/><polygon class="cls-50" points="32.52 18.62 32.52 17.11 32.26 17.11 32.26 18.45 32.52 18.62"/><polygon class="cls-51" points="32.52 25.12 32.52 27.87 32.78 27.72 32.78 25.12 32.52 25.12"/><polygon class="cls-51" points="32.78 17.11 32.78 14.62 32.52 14.45 32.52 17.11 32.78 17.11"/><polygon class="cls-51" points="32.52 23.59 32.52 25.12 32.78 25.12 32.78 23.41 32.52 23.59"/><polygon class="cls-51" points="32.78 18.79 32.78 17.11 32.52 17.11 32.52 18.62 32.78 18.79"/><polygon class="cls-52" points="33.04 17.11 33.04 14.78 32.78 14.62 32.78 17.11 33.04 17.11"/><polygon class="cls-52" points="32.78 25.12 32.78 27.72 33.04 27.56 33.04 25.12 32.78 25.12"/><polygon class="cls-52" points="33.04 18.96 33.04 17.11 32.78 17.11 32.78 18.79 33.04 18.96"/><polygon class="cls-52" points="32.78 23.41 32.78 25.12 33.04 25.12 33.04 23.24 32.78 23.41"/><polygon class="cls-53" points="33.3 17.11 33.3 14.95 33.04 14.78 33.04 17.11 33.3 17.11"/><polygon class="cls-53" points="33.04 25.12 33.04 27.56 33.3 27.41 33.3 25.12 33.04 25.12"/><polygon class="cls-53" points="33.04 23.24 33.04 25.12 33.3 25.12 33.3 23.07 33.04 23.24"/><polygon class="cls-53" points="33.3 19.13 33.3 17.11 33.04 17.11 33.04 18.96 33.3 19.13"/><polygon class="cls-54" points="33.56 17.11 33.56 15.11 33.3 14.95 33.3 17.11 33.56 17.11"/><polygon class="cls-54" points="33.3 25.12 33.3 27.41 33.56 27.25 33.56 25.12 33.3 25.12"/><polygon class="cls-54" points="33.56 19.3 33.56 17.11 33.3 17.11 33.3 19.13 33.56 19.3"/><polygon class="cls-54" points="33.3 23.07 33.3 25.12 33.56 25.12 33.56 22.89 33.3 23.07"/><polygon class="cls-55" points="33.56 25.12 33.56 27.25 33.82 27.1 33.82 25.12 33.56 25.12"/><polygon class="cls-55" points="33.82 17.11 33.82 15.28 33.56 15.11 33.56 17.11 33.82 17.11"/><polygon class="cls-55" points="33.82 19.47 33.82 17.11 33.56 17.11 33.56 19.3 33.82 19.47"/><polygon class="cls-55" points="33.56 22.89 33.56 25.12 33.82 25.12 33.82 22.72 33.56 22.89"/><polygon class="cls-56" points="34.08 17.11 34.08 15.44 33.82 15.28 33.82 17.11 34.08 17.11"/><polygon class="cls-56" points="33.82 25.12 33.82 27.1 34.08 26.94 34.08 25.12 33.82 25.12"/><polygon class="cls-56" points="33.82 22.72 33.82 25.12 34.08 25.12 34.08 22.55 33.82 22.72"/><polygon class="cls-56" points="34.08 19.64 34.08 17.11 33.82 17.11 33.82 19.47 34.08 19.64"/><polygon class="cls-57" points="34.34 17.11 34.34 15.61 34.08 15.44 34.08 17.11 34.34 17.11"/><polygon class="cls-57" points="34.08 25.12 34.08 26.94 34.34 26.79 34.34 25.12 34.08 25.12"/><polygon class="cls-57" points="34.34 19.81 34.34 17.11 34.08 17.11 34.08 19.64 34.34 19.81"/><polygon class="cls-57" points="34.08 22.55 34.08 25.12 34.34 25.12 34.34 22.38 34.08 22.55"/><polygon class="cls-58" points="34.34 25.12 34.34 26.79 34.6 26.63 34.6 25.12 34.34 25.12"/><polygon class="cls-58" points="34.6 17.11 34.6 15.77 34.34 15.61 34.34 17.11 34.6 17.11"/><polygon class="cls-58" points="34.6 19.98 34.6 17.11 34.34 17.11 34.34 19.81 34.6 19.98"/><polygon class="cls-58" points="34.34 22.38 34.34 25.12 34.6 25.12 34.6 22.2 34.34 22.38"/><polygon class="cls-59" points="34.86 17.11 34.86 15.94 34.6 15.77 34.6 17.11 34.86 17.11"/><polygon class="cls-59" points="34.6 25.12 34.6 26.63 34.86 26.48 34.86 25.12 34.6 25.12"/><polygon class="cls-59" points="34.86 20.16 34.86 17.11 34.6 17.11 34.6 19.98 34.86 20.16"/><polygon class="cls-59" points="34.6 22.2 34.6 25.12 34.86 25.12 34.86 22.03 34.6 22.2"/><polygon class="cls-60" points="34.86 25.12 34.86 26.48 35.12 26.32 35.12 25.12 34.86 25.12"/><polygon class="cls-60" points="35.12 17.11 35.12 16.1 34.86 15.94 34.86 17.11 35.12 17.11"/><polygon class="cls-60" points="35.12 20.33 35.12 17.11 34.86 17.11 34.86 20.16 35.12 20.33"/><polygon class="cls-60" points="34.86 22.03 34.86 25.12 35.12 25.12 35.12 21.86 34.86 22.03"/><polygon class="cls-61" points="35.12 25.12 35.12 26.32 35.38 26.17 35.38 25.12 35.12 25.12"/><polygon class="cls-61" points="35.38 17.11 35.38 16.27 35.12 16.1 35.12 17.11 35.38 17.11"/><polygon class="cls-61" points="35.38 20.5 35.38 17.11 35.12 17.11 35.12 20.33 35.38 20.5"/><polygon class="cls-61" points="35.12 21.86 35.12 25.12 35.38 25.12 35.38 21.68 35.12 21.86"/><polygon class="cls-62" points="35.38 25.12 35.38 26.17 35.64 26.01 35.64 25.12 35.38 25.12"/><polygon class="cls-62" points="35.64 17.11 35.64 16.43 35.38 16.27 35.38 17.11 35.64 17.11"/><polygon class="cls-62" points="35.38 21.68 35.38 25.12 35.64 25.12 35.64 21.51 35.38 21.68"/><polygon class="cls-62" points="35.64 20.67 35.64 17.11 35.38 17.11 35.38 20.5 35.64 20.67"/><polygon class="cls-63" points="35.9 17.11 35.9 16.6 35.64 16.43 35.64 17.11 35.9 17.11"/><polygon class="cls-63" points="35.64 25.12 35.64 26.01 35.9 25.86 35.9 25.12 35.64 25.12"/><polygon class="cls-63" points="35.64 21.51 35.64 25.12 35.9 25.12 35.9 21.34 35.64 21.51"/><polygon class="cls-63" points="35.9 20.84 35.9 17.11 35.64 17.11 35.64 20.67 35.9 20.84"/><polygon class="cls-64" points="36.16 17.11 36.16 16.76 35.9 16.6 35.9 17.11 36.16 17.11"/><polygon class="cls-64" points="35.9 25.12 35.9 25.86 36.16 25.7 36.16 25.12 35.9 25.12"/><polygon class="cls-64" points="35.9 21.34 35.9 25.12 36.16 25.12 36.16 21.16 35.9 21.34"/><polygon class="cls-64" points="36.16 21.01 36.16 17.11 35.9 17.11 35.9 20.84 36.16 21.01"/><polygon class="cls-65" points="36.25 17.11 36.25 21.07 36.25 21.1 36.25 25.12 36.16 25.12 36.16 25.7 36.42 25.55 36.42 16.93 36.16 16.76 36.16 17.11 36.25 17.11"/><polygon class="cls-65" points="36.16 25.12 36.25 25.12 36.25 21.1 36.16 21.16 36.16 25.12"/><polygon class="cls-65" points="36.25 21.07 36.25 17.11 36.16 17.11 36.16 21.01 36.25 21.07"/><polygon class="cls-66" points="36.68 25.39 36.68 17.09 36.42 16.93 36.42 25.55 36.68 25.39"/><polygon class="cls-67" points="36.94 25.24 36.94 17.26 36.68 17.09 36.68 25.39 36.94 25.24"/><polygon class="cls-68" points="37.2 25.09 37.2 17.42 36.94 17.26 36.94 25.24 37.2 25.09"/><polygon class="cls-69" points="37.45 24.93 37.45 17.59 37.2 17.42 37.2 25.09 37.45 24.93"/><polygon class="cls-70" points="37.71 24.78 37.71 17.75 37.45 17.59 37.45 24.93 37.71 24.78"/><polygon class="cls-71" points="37.97 24.62 37.97 17.92 37.71 17.75 37.71 24.78 37.97 24.62"/><polygon class="cls-72" points="38.23 24.47 38.23 18.09 37.97 17.92 37.97 24.62 38.23 24.47"/><polygon class="cls-73" points="38.49 24.31 38.49 18.25 38.23 18.09 38.23 24.47 38.49 24.31"/><polygon class="cls-74" points="38.75 24.16 38.75 18.42 38.49 18.25 38.49 24.31 38.75 24.16"/><polygon class="cls-75" points="39.01 24 39.01 18.58 38.75 18.42 38.75 24.16 39.01 24"/><polygon class="cls-76" points="39.27 23.85 39.27 18.75 39.01 18.58 39.01 24 39.27 23.85"/><polygon class="cls-77" points="39.53 23.69 39.53 18.91 39.27 18.75 39.27 23.85 39.53 23.69"/><polygon class="cls-78" points="39.79 23.54 39.79 19.08 39.53 18.91 39.53 23.69 39.79 23.54"/><polygon class="cls-79" points="40.05 23.38 40.05 19.24 39.79 19.08 39.79 23.54 40.05 23.38"/><polygon class="cls-80" points="40.31 23.23 40.31 19.41 40.05 19.24 40.05 23.38 40.31 23.23"/><polygon class="cls-81" points="40.57 23.07 40.57 19.57 40.31 19.41 40.31 23.23 40.57 23.07"/><polygon class="cls-82" points="40.83 22.92 40.83 19.74 40.57 19.57 40.57 23.07 40.83 22.92"/><path class="cls-2" d="M0,50.06a5.33,5.33,0,0,0,.48,2.22V47.84A5.33,5.33,0,0,0,0,50.06Z"/><path class="cls-3" d="M.48,47.84v4.44a5.46,5.46,0,0,0,.48.85V47A5.86,5.86,0,0,0,.48,47.84Z"/><path class="cls-83" d="M1,47v6.13a6.86,6.86,0,0,0,.48.59V46.41A5.6,5.6,0,0,0,1,47Z"/><path class="cls-84" d="M1.44,46.41v7.31a5.22,5.22,0,0,0,.48.46V46A4.16,4.16,0,0,0,1.44,46.41Z"/><path class="cls-85" d="M1.92,46v8.23a4.29,4.29,0,0,0,.48.36V45.59A4.29,4.29,0,0,0,1.92,46Z"/><path class="cls-86" d="M2.4,45.59v8.95a3.82,3.82,0,0,0,.48.29V45.3A3.82,3.82,0,0,0,2.4,45.59Z"/><path class="cls-87" d="M3.11,16.29V45.18l-.23.12v9.53l.48.22V16.14Z"/><path class="cls-88" d="M3.36,16.14V55.05l.48.17V15.85Z"/><path class="cls-89" d="M3.84,15.85V55.22a4.21,4.21,0,0,0,.48.12V15.56Z"/><path class="cls-90" d="M4.32,15.56V55.34a4,4,0,0,0,.48.07V15.27Z"/><path class="cls-91" d="M4.8,15.27V55.41a3.87,3.87,0,0,0,.48,0V15Z"/><path class="cls-92" d="M5.28,15V55.44h.1l.38,0V14.69Z"/><path class="cls-93" d="M5.76,14.69V55.43a3.93,3.93,0,0,0,.48-.06v-41Z"/><path class="cls-94" d="M6.24,14.39v41a4.1,4.1,0,0,0,.48-.1V14.1Z"/><path class="cls-95" d="M6.72,14.1V55.27l.48-.15V13.81Z"/><path class="cls-96" d="M7.2,13.81V55.12a4.78,4.78,0,0,0,.48-.19V45.2l-.21-.1V18.74l.21-.13V13.52Z"/><path class="cls-97" d="M8.16,54.67V45.45c-.15-.09-.32-.17-.48-.25v9.73Z"/><polygon class="cls-97" points="7.68 13.52 7.68 18.61 8.16 18.32 8.16 13.23 7.68 13.52"/><polygon class="cls-98" points="8.16 13.23 8.16 18.32 8.64 18.03 8.64 12.94 8.16 13.23"/><path class="cls-98" d="M8.64,54.34V45.79a5.85,5.85,0,0,0-.48-.34v9.22A4.07,4.07,0,0,0,8.64,54.34Z"/><path class="cls-99" d="M9.12,53.93V46.2a3.72,3.72,0,0,0-.48-.41v8.55A4.72,4.72,0,0,0,9.12,53.93Z"/><polygon class="cls-99" points="8.64 12.94 8.64 18.03 9.12 17.74 9.12 12.65 8.64 12.94"/><polygon class="cls-100" points="9.12 12.65 9.12 17.74 9.6 17.45 9.6 12.35 9.12 12.65"/><path class="cls-100" d="M9.6,53.4V46.72a5.91,5.91,0,0,0-.48-.52v7.73A6,6,0,0,0,9.6,53.4Z"/><polygon class="cls-101" points="9.6 12.35 9.6 17.45 10.08 17.15 10.08 12.06 9.6 12.35"/><path class="cls-101" d="M10.08,52.69V47.44a5.63,5.63,0,0,0-.48-.72V53.4A4.91,4.91,0,0,0,10.08,52.69Z"/><path class="cls-102" d="M10.56,51.51v-2.9a6,6,0,0,0-.48-1.17v5.25A5.84,5.84,0,0,0,10.56,51.51Z"/><polygon class="cls-102" points="10.08 12.06 10.08 17.15 10.56 16.86 10.56 11.77 10.08 12.06"/><polygon class="cls-103" points="10.56 11.77 10.56 16.86 11.04 16.57 11.04 11.48 10.56 11.77"/><path class="cls-103" d="M10.76,50.06a5.34,5.34,0,0,0-.2-1.45v2.9A5.29,5.29,0,0,0,10.76,50.06Z"/><polygon class="cls-104" points="11.04 11.48 11.04 16.57 11.52 16.28 11.52 11.19 11.04 11.48"/><polygon class="cls-105" points="11.52 11.19 11.52 16.28 12 15.99 12 10.9 11.52 11.19"/><polygon class="cls-106" points="12 10.9 12 15.99 12.48 15.7 12.48 10.61 12 10.9"/><polygon class="cls-107" points="12.48 10.61 12.48 15.7 12.96 15.4 12.96 10.31 12.48 10.61"/><polygon class="cls-108" points="12.96 10.31 12.96 15.4 13.44 15.11 13.44 10.02 12.96 10.31"/><polygon class="cls-109" points="13.44 10.02 13.44 15.11 13.92 14.82 13.92 9.73 13.44 10.02"/><polygon class="cls-110" points="13.92 9.73 13.92 14.82 14.4 14.53 14.4 9.44 13.92 9.73"/><polygon class="cls-111" points="14.4 9.44 14.4 14.53 14.88 14.24 14.88 9.15 14.4 9.44"/><polygon class="cls-112" points="14.88 9.15 14.88 14.24 15.36 13.95 15.36 8.86 14.88 9.15"/><polygon class="cls-113" points="15.36 8.86 15.36 13.95 15.84 13.65 15.84 8.56 15.36 8.86"/><polygon class="cls-114" points="15.84 8.56 15.84 13.65 16.32 13.36 16.32 8.27 15.84 8.56"/><polygon class="cls-115" points="16.32 8.27 16.32 13.36 16.8 13.07 16.8 7.98 16.32 8.27"/><polygon class="cls-116" points="16.8 7.98 16.8 13.07 17.28 12.78 17.28 7.69 16.8 7.98"/><polygon class="cls-117" points="17.28 7.69 17.28 12.78 17.76 12.49 17.76 7.4 17.28 7.69"/><polygon class="cls-118" points="17.76 7.4 17.76 12.49 18.24 12.2 18.24 7.11 17.76 7.4"/><polygon class="cls-119" points="18.24 7.11 18.24 12.2 18.72 11.91 18.72 6.82 18.24 7.11"/><polygon class="cls-120" points="18.72 6.82 18.72 11.91 19.2 11.62 19.2 6.52 18.72 6.82"/><polygon class="cls-121" points="19.2 6.52 19.2 11.62 19.68 11.32 19.68 6.23 19.2 6.52"/><polygon class="cls-122" points="19.68 6.23 19.68 11.32 20.16 11.03 20.16 5.94 19.68 6.23"/><polygon class="cls-123" points="20.16 5.94 20.16 11.03 20.64 10.74 20.64 5.65 20.16 5.94"/><polygon class="cls-124" points="20.64 5.65 20.64 10.74 21.12 10.45 21.12 5.36 20.64 5.65"/><polygon class="cls-125" points="21.12 5.36 21.12 10.45 21.6 10.16 21.6 5.07 21.12 5.36"/><polygon class="cls-126" points="21.6 5.07 21.6 10.16 22.08 9.87 22.08 4.78 21.6 5.07"/><polygon class="cls-127" points="22.08 4.78 22.08 9.87 22.56 9.57 22.56 4.48 22.08 4.78"/><polygon class="cls-128" points="22.56 4.48 22.56 9.57 23.04 9.28 23.04 4.19 22.56 4.48"/><polygon class="cls-129" points="23.04 4.19 23.04 9.28 23.52 8.99 23.52 3.9 23.04 4.19"/><polygon class="cls-130" points="23.52 3.9 23.52 8.99 24 8.7 24 3.61 23.52 3.9"/><polygon class="cls-131" points="24 3.61 24 8.7 24.48 8.41 24.48 3.32 24 3.61"/><polygon class="cls-132" points="24.48 3.32 24.48 8.41 24.96 8.12 24.96 3.03 24.48 3.32"/><polygon class="cls-133" points="24.96 3.03 24.96 8.12 25.44 7.83 25.44 2.73 24.96 3.03"/><polygon class="cls-134" points="25.44 2.73 25.44 7.83 25.92 7.53 25.92 2.44 25.44 2.73"/><polygon class="cls-135" points="25.92 2.44 25.92 7.53 26.4 7.24 26.4 2.15 25.92 2.44"/><polygon class="cls-136" points="26.4 2.15 26.4 7.24 26.88 6.95 26.88 1.86 26.4 2.15"/><polygon class="cls-137" points="26.88 1.86 26.88 6.95 27.36 6.66 27.36 1.57 26.88 1.86"/><polygon class="cls-138" points="27.36 1.57 27.36 6.66 27.84 6.37 27.84 1.28 27.36 1.57"/><polygon class="cls-139" points="27.84 1.28 27.84 6.37 28.32 6.08 28.32 0.98 27.84 1.28"/><polygon class="cls-140" points="28.32 0.98 28.32 6.08 28.8 5.79 28.8 0.69 28.32 0.98"/><polygon class="cls-141" points="28.8 0.69 28.8 5.79 29.28 5.49 29.28 0.4 28.8 0.69"/><polygon class="cls-142" points="29.28 0.4 29.28 5.49 29.76 5.2 29.76 0.11 29.28 0.4"/><polygon class="cls-143" points="29.94 0 29.76 0.11 29.76 5.2 29.94 5.09 30.24 5.27 30.24 0.18 29.94 0"/><polygon class="cls-144" points="30.24 0.18 30.24 5.27 30.72 5.56 30.72 0.47 30.24 0.18"/><polygon class="cls-145" points="30.72 0.47 30.72 5.56 31.2 5.85 31.2 0.76 30.72 0.47"/><polygon class="cls-146" points="31.2 0.76 31.2 5.85 31.68 6.15 31.68 1.05 31.2 0.76"/><polygon class="cls-147" points="31.68 1.05 31.68 6.15 32.16 6.44 32.16 1.35 31.68 1.05"/><polygon class="cls-148" points="32.16 1.35 32.16 6.44 32.64 6.73 32.64 1.64 32.16 1.35"/><polygon class="cls-149" points="32.64 1.64 32.64 6.73 33.12 7.02 33.12 1.93 32.64 1.64"/><polygon class="cls-150" points="33.12 1.93 33.12 7.02 33.6 7.31 33.6 2.22 33.12 1.93"/><polygon class="cls-151" points="33.6 2.22 33.6 7.31 34.08 7.6 34.08 2.51 33.6 2.22"/><polygon class="cls-152" points="34.08 2.51 34.08 7.6 34.56 7.89 34.56 2.8 34.08 2.51"/><polygon class="cls-153" points="34.56 2.8 34.56 7.89 35.04 8.19 35.04 3.1 34.56 2.8"/><polygon class="cls-154" points="35.04 3.1 35.04 8.19 35.52 8.48 35.52 3.39 35.04 3.1"/><polygon class="cls-155" points="35.52 3.39 35.52 8.48 36 8.77 36 3.68 35.52 3.39"/><polygon class="cls-156" points="36 3.68 36 8.77 36.48 9.06 36.48 3.97 36 3.68"/><polygon class="cls-157" points="36.48 3.97 36.48 9.06 36.96 9.35 36.96 4.26 36.48 3.97"/><polygon class="cls-158" points="36.96 4.26 36.96 9.35 37.44 9.64 37.44 4.55 36.96 4.26"/><polygon class="cls-159" points="37.44 4.55 37.44 9.64 37.92 9.94 37.92 4.84 37.44 4.55"/><polygon class="cls-160" points="37.92 4.84 37.92 9.94 38.4 10.23 38.4 5.14 37.92 4.84"/><polygon class="cls-161" points="38.4 5.14 38.4 10.23 38.88 10.52 38.88 5.43 38.4 5.14"/><polygon class="cls-162" points="38.88 5.43 38.88 10.52 39.36 10.81 39.36 5.72 38.88 5.43"/><polygon class="cls-163" points="39.36 5.72 39.36 10.81 39.84 11.1 39.84 6.01 39.36 5.72"/><polygon class="cls-164" points="39.84 6.01 39.84 11.1 40.32 11.39 40.32 6.3 39.84 6.01"/><polygon class="cls-165" points="40.32 6.3 40.32 11.39 40.8 11.68 40.8 6.59 40.32 6.3"/><polygon class="cls-166" points="40.8 6.59 40.8 11.68 41.28 11.98 41.28 6.88 40.8 6.59"/><polygon class="cls-167" points="41.28 6.88 41.28 11.98 41.76 12.27 41.76 7.18 41.28 6.88"/><polygon class="cls-168" points="41.76 7.18 41.76 12.27 42.24 12.56 42.24 7.47 41.76 7.18"/><polygon class="cls-169" points="42.24 7.47 42.24 12.56 42.72 12.85 42.72 7.76 42.24 7.47"/><polygon class="cls-170" points="42.72 7.76 42.72 12.85 43.2 13.14 43.2 8.05 42.72 7.76"/><polygon class="cls-171" points="43.2 8.05 43.2 13.14 43.68 13.43 43.68 8.34 43.2 8.05"/><polygon class="cls-172" points="43.68 8.34 43.68 13.43 44.16 13.72 44.16 8.63 43.68 8.34"/><polygon class="cls-173" points="44.16 8.63 44.16 13.72 44.64 14.02 44.64 8.93 44.16 8.63"/><polygon class="cls-174" points="44.64 8.93 44.64 14.02 45.12 14.31 45.12 9.22 44.64 8.93"/><polygon class="cls-175" points="45.12 9.22 45.12 14.31 45.6 14.6 45.6 9.51 45.12 9.22"/><polygon class="cls-176" points="45.6 9.51 45.6 14.6 46.08 14.89 46.08 9.8 45.6 9.51"/><polygon class="cls-177" points="46.08 9.8 46.08 14.89 46.56 15.18 46.56 10.09 46.08 9.8"/><polygon class="cls-178" points="46.56 10.09 46.56 15.18 47.04 15.47 47.04 10.38 46.56 10.09"/><polygon class="cls-179" points="47.04 10.38 47.04 15.47 47.52 15.77 47.52 10.68 47.04 10.38"/><polygon class="cls-180" points="47.52 10.68 47.52 15.77 48 16.06 48 10.97 47.52 10.68"/><polygon class="cls-181" points="48 10.97 48 16.06 48.48 16.35 48.48 11.26 48 10.97"/><polygon class="cls-182" points="48.48 11.26 48.48 16.35 48.96 16.64 48.96 11.55 48.48 11.26"/><path class="cls-183" d="M49.24,50.06a5.29,5.29,0,0,0,.2,1.45v-2.9A5.34,5.34,0,0,0,49.24,50.06Z"/><polygon class="cls-183" points="48.96 11.55 48.96 16.64 49.44 16.93 49.44 11.84 48.96 11.55"/><path class="cls-184" d="M49.44,48.61v2.9a5.84,5.84,0,0,0,.48,1.18V47.44A5.75,5.75,0,0,0,49.44,48.61Z"/><polygon class="cls-184" points="49.44 11.84 49.44 16.93 49.92 17.22 49.92 12.13 49.44 11.84"/><polygon class="cls-185" points="49.92 12.13 49.92 17.22 50.4 17.51 50.4 12.42 49.92 12.13"/><path class="cls-185" d="M49.92,47.44v5.25a4.91,4.91,0,0,0,.48.71V46.73A4.91,4.91,0,0,0,49.92,47.44Z"/><polygon class="cls-186" points="50.4 12.42 50.4 17.51 50.88 17.81 50.88 12.71 50.4 12.42"/><path class="cls-186" d="M50.4,46.73V53.4a6,6,0,0,0,.48.53V46.2A4.88,4.88,0,0,0,50.4,46.73Z"/><polygon class="cls-187" points="50.88 12.71 50.88 17.81 51.36 18.1 51.36 13.01 50.88 12.71"/><path class="cls-187" d="M50.88,46.2v7.73a4.72,4.72,0,0,0,.48.41V45.79A3.72,3.72,0,0,0,50.88,46.2Z"/><polygon class="cls-188" points="51.36 13.01 51.36 18.1 51.84 18.39 51.84 13.3 51.36 13.01"/><path class="cls-188" d="M51.36,45.79v8.55a4.07,4.07,0,0,0,.48.33V45.46A4.07,4.07,0,0,0,51.36,45.79Z"/><polygon class="cls-189" points="51.84 13.3 51.84 18.39 52.32 18.68 52.32 13.59 51.84 13.3"/><path class="cls-189" d="M51.84,45.46v9.21l.48.26V45.2Z"/><path class="cls-190" d="M52.32,13.59v5.09l.1.06V45.15l-.1.05v9.73a4.78,4.78,0,0,0,.48.19V13.88Z"/><path class="cls-191" d="M52.8,13.88V55.12l.48.15V14.17Z"/><path class="cls-192" d="M53.28,14.17v41.1a4.1,4.1,0,0,0,.48.1V14.46Z"/><path class="cls-193" d="M53.76,14.46V55.37a3.93,3.93,0,0,0,.48.06V14.76Z"/><path class="cls-194" d="M54.24,14.76V55.43l.38,0h.1V15.05Z"/><path class="cls-195" d="M54.72,15.05V55.44a3.87,3.87,0,0,0,.48,0V15.34Z"/><path class="cls-196" d="M55.2,15.34V55.41a4,4,0,0,0,.48-.07V15.63Z"/><path class="cls-197" d="M55.68,15.63V55.34a4.21,4.21,0,0,0,.48-.12V15.92Z"/><path class="cls-198" d="M56.16,15.92v39.3l.48-.17V16.21Z"/><path class="cls-199" d="M56.77,45.13V16.29l-.13-.08V55.05l.48-.22V45.3Z"/><path class="cls-200" d="M57.12,45.3v9.53a3.82,3.82,0,0,0,.48-.29V45.59C57.44,45.49,57.29,45.39,57.12,45.3Z"/><path class="cls-201" d="M57.6,45.59v8.95a4.29,4.29,0,0,0,.48-.36V46A4.29,4.29,0,0,0,57.6,45.59Z"/><path class="cls-202" d="M58.08,46v8.23a5.22,5.22,0,0,0,.48-.46V46.41A4.16,4.16,0,0,0,58.08,46Z"/><path class="cls-203" d="M58.56,46.41v7.31a6.86,6.86,0,0,0,.48-.59V47A5.6,5.6,0,0,0,58.56,46.41Z"/><path class="cls-204" d="M59,47v6.13a5.46,5.46,0,0,0,.48-.85V47.85A5.46,5.46,0,0,0,59,47Z"/><path class="cls-205" d="M59.52,52.28A5.33,5.33,0,0,0,60,50.06a5.25,5.25,0,0,0-.48-2.21Z"/></g></g></svg>