<svg xmlns="http://www.w3.org/2000/svg" xmlns:xlink="http://www.w3.org/1999/xlink" viewBox="0 0 120.65 124.15"><defs><style>.cls-1{fill:url(#linear-gradient);}.cls-2{fill:url(#linear-gradient-2);}.cls-3{fill:url(#linear-gradient-3);}</style><linearGradient id="linear-gradient" x1="33" y1="98.6" x2="87.65" y2="98.6" gradientUnits="userSpaceOnUse"><stop offset="0" stop-color="#4d4be9"/><stop offset="1" stop-color="#099cf5"/></linearGradient><linearGradient id="linear-gradient-2" x1="39.81" y1="50.46" x2="82.1" y2="50.46" xlink:href="#linear-gradient"/><linearGradient id="linear-gradient-3" y1="55.74" x2="120.65" y2="55.74" gradientUnits="userSpaceOnUse"><stop offset="0" stop-color="#4d4be9"/><stop offset="1" stop-color="#0bc8cc"/></linearGradient></defs><title>Asset 1</title><g id="Layer_2" data-name="Layer 2"><g id="Page1"><path class="cls-1" d="M81.43,103.53,82,73.08,60.88,86,39.75,73.05l-.53,30.48a10.82,10.82,0,1,0,9.21,0l.67-16.6,11.78,7.55,12-7.7-.67,16.75a10.83,10.83,0,1,0,9.21,0Z"/><path class="cls-2" d="M60.77,34.11l-21,13.48.08,2.86V54L60.77,66.8,82.1,54.08V47.69ZM72.89,50.43,60.77,58.51,49.12,50.1l11.65-7.71,12.12,8Z"/><path class="cls-3" d="M114.15,90.75v-58L60.21,0,6.26,32.76V90.85A10.82,10.82,0,1,0,15,90.69v-53l45.2-27.44L105.4,37.68V90.79a10.83,10.83,0,1,0,8.75,0Z"/></g></g></svg>