<svg xmlns="http://www.w3.org/2000/svg" viewBox="0 0 21.62 14.59"><title>Asset 19</title><g id="Layer_2" data-name="Layer 2"><g id="Page4"><path d="M10.62,8.27,0,1.79C0,1.63,0,.17,0,0L.11,0H21a1,1,0,0,1,.24,0s0,0,0,.06V1.71l-.15.1L17.5,4,10.88,8.12Z"/><path d="M.69,14.58C.8,14.4,6.58,7.14,6.68,7a.3.3,0,0,1,.15.07l3.21,2,.58.35c.17-.09.33-.2.49-.3l.49-.3.5-.31.49-.3.48-.29.49-.3.49-.31.49-.3c.07,0,.1.09.14.14L16.17,9l4.26,5.36.12.15a.06.06,0,0,1-.07.05H.93A1,1,0,0,1,.69,14.58Z"/><path d="M21.6,2.82a.45.45,0,0,1,0,.08v11l0,0c-.05,0-.06,0-.09-.07-.3-.38-.6-.75-.89-1.13L15.8,6.65l-.12-.16c0-.07.09-.09.15-.12l1.68-1,3.91-2.4Z"/><path d="M5.82,6.51a1.47,1.47,0,0,1-.1.13C4.09,8.72.13,13.68,0,13.77s0,0,0-.07V3.2A.55.55,0,0,1,0,3h0L5.73,6.44Z"/></g></g></svg>