<svg xmlns="http://www.w3.org/2000/svg" viewBox="0 0 70 53.03"><defs><style>.cls-1{fill:#13e8be;}</style></defs><title>Asset 32</title><g id="Layer_2" data-name="Layer 2"><g id="about"><path class="cls-1" d="M4.35,53,.93,47.69l1.39-.75a40.68,40.68,0,0,0,11.61-8.6c3.3-3.63,5.69-9.19,5.75-13.55-1.29,0-2.58.08-3.86,0A42.13,42.13,0,0,1,9.07,24C4.6,22.92,1.48,20.19.39,15.53A11.47,11.47,0,0,1,4.46,3.32,13.21,13.21,0,0,1,12.53.08C18.2-.17,23.26,1.19,27,5.8a19.46,19.46,0,0,1,3.84,8.74,25.6,25.6,0,0,1-4.39,20.6A51.7,51.7,0,0,1,4.35,53Z"/><path class="cls-1" d="M42.92,53l-3.42-5.3L40.9,47a42.31,42.31,0,0,0,11-8,23.07,23.07,0,0,0,6.4-14.2H57.18a42,42,0,0,1-8.82-.53c-7.43-1.57-11.68-8.75-9.14-15.66A12.31,12.31,0,0,1,47.27,1a16.77,16.77,0,0,1,16,2.63c3.45,2.61,5.16,6.37,6,10.52a25.6,25.6,0,0,1-4.25,21A51.74,51.74,0,0,1,42.92,53Z"/></g></g></svg>