<svg xmlns="http://www.w3.org/2000/svg" viewBox="0 0 110.55 83.74"><defs><style>.cls-1{fill:#ff5c55;}</style></defs><title>Asset 7</title><g id="Layer_2" data-name="Layer 2"><g id="Pgae_2" data-name="Pgae 2"><path class="cls-1" d="M103.69,0c1.81,2.81,3.55,5.51,5.39,8.35l-2.2,1.18A64.51,64.51,0,0,0,88.54,23.11c-5.2,5.74-9,14.52-9.07,21.4,2,0,4.07-.13,6.09,0,3.57.27,7.22.32,10.66,1.17,7.07,1.76,12,6.07,13.71,13.43,1.81,7.72-.33,14.17-6.43,19.29a20.91,20.91,0,0,1-12.74,5.11c-9,.39-17-1.76-22.87-9a30.71,30.71,0,0,1-6.08-13.8,40.47,40.47,0,0,1,6.93-32.53A81.7,81.7,0,0,1,103.69,0Z"/><path class="cls-1" d="M42.77,0l5.4,8.36c-.77.41-1.49.8-2.21,1.17A66.33,66.33,0,0,0,28.58,22.09,36.35,36.35,0,0,0,18.47,44.51h1.77c4.66,0,9.33-.14,13.94.83C45.9,47.82,52.62,59.17,48.62,70.09A19.44,19.44,0,0,1,35.9,82.23c-9,2.92-17.66,1.65-25.29-4.14C5.16,74,2.47,68,1.05,61.48A40.51,40.51,0,0,1,7.76,28.26,81.66,81.66,0,0,1,42.77,0Z"/></g></g></svg>