<svg xmlns="http://www.w3.org/2000/svg" viewBox="0 0 70 53.03"><defs><style>.cls-1{fill:#13e8be;}</style></defs><title>Asset 33</title><g id="Layer_2" data-name="Layer 2"><g id="work"><path class="cls-1" d="M65.65,0l3.42,5.29L67.68,6a40.87,40.87,0,0,0-11.61,8.6c-3.3,3.64-5.69,9.2-5.75,13.55,1.29,0,2.58-.08,3.86,0a40,40,0,0,1,6.75.75c4.47,1.11,7.59,3.84,8.68,8.5a11.47,11.47,0,0,1-4.07,12.21,13.21,13.21,0,0,1-8.07,3.24c-5.67.24-10.73-1.12-14.49-5.73a19.37,19.37,0,0,1-3.84-8.74,25.6,25.6,0,0,1,4.39-20.6A51.68,51.68,0,0,1,65.65,0Z"/><path class="cls-1" d="M27.08,0,30.5,5.29,29.1,6a42,42,0,0,0-11,7.94,23.12,23.12,0,0,0-6.4,14.2h1.13a42.73,42.73,0,0,1,8.82.53c7.43,1.57,11.68,8.76,9.14,15.67a12.28,12.28,0,0,1-8,7.69,16.79,16.79,0,0,1-16-2.62c-3.45-2.62-5.16-6.37-6-10.52a25.62,25.62,0,0,1,4.25-21A51.72,51.72,0,0,1,27.08,0Z"/></g></g></svg>