<svg xmlns="http://www.w3.org/2000/svg" viewBox="0 0 117.6 89.08"><defs><style>.cls-1{fill:#f3f3f3;}</style></defs><title>Asset 8</title><g id="Layer_2" data-name="Layer 2"><g id="Page_3" data-name="Page 3"><path class="cls-1" d="M110.29,0,116,8.88l-2.33,1.25c-7.27,3.8-14,8.34-19.51,14.45S84.64,40,84.54,47.35c2.16,0,4.33-.14,6.47,0,3.8.29,7.68.34,11.34,1.25,7.52,1.87,12.76,6.46,14.59,14.28,1.92,8.21-.35,15.08-6.84,20.52a22.21,22.21,0,0,1-13.56,5.44c-9.52.41-18-1.88-24.33-9.62a32.8,32.8,0,0,1-6.46-14.68A43,43,0,0,1,73.12,30,86.82,86.82,0,0,1,110.29,0Z"/><path class="cls-1" d="M45.5,0c1.93,3,3.79,5.87,5.74,8.89l-2.36,1.25A70.76,70.76,0,0,0,30.4,23.49,38.67,38.67,0,0,0,19.65,47.35h1.89c4.95,0,9.91-.15,14.82.88C48.83,50.87,56,62.94,51.72,74.55A20.71,20.71,0,0,1,38.19,87.48c-9.59,3.09-18.79,1.75-26.91-4.41C5.49,78.67,2.63,72.37,1.12,65.4A43.09,43.09,0,0,1,8.26,30.06,86.78,86.78,0,0,1,45.5,0Z"/></g></g></svg>