<svg xmlns="http://www.w3.org/2000/svg" viewBox="0 0 17 20.07"><defs><style>.cls-1{fill:#04d3d1;}</style></defs><title>Asset 4</title><g id="Layer_2" data-name="Layer 2"><g id="Page1"><path class="cls-1" d="M0,10V1.73A1.72,1.72,0,0,1,.2.9,1.68,1.68,0,0,1,1.46,0a1.42,1.42,0,0,1,.29,0h10.1a1.25,1.25,0,0,1,.54.12,1.19,1.19,0,0,1,.31.23L14.3,2l2.38,2.38a1.13,1.13,0,0,1,.23.34,1.37,1.37,0,0,1,.09.4V18.33a1.7,1.7,0,0,1-.17.77,1.66,1.66,0,0,1-1.24.95l-.26,0H1.74A1.83,1.83,0,0,1,1,19.93a1.69,1.69,0,0,1-1-1.29,1.72,1.72,0,0,1,0-.32Zm.84,0v8.33a.86.86,0,0,0,.51.79.92.92,0,0,0,.4.08H15.3a.83.83,0,0,0,.62-.27.9.9,0,0,0,.25-.67V5.17a.38.38,0,0,0-.11-.29L12.13,1l0,0A.34.34,0,0,0,11.9.84H1.69a.86.86,0,0,0-.79.55.83.83,0,0,0-.06.35Z"/><path class="cls-1" d="M10,13.44l.41.15,1.45.51a.85.85,0,0,1,.58.65c0,.17.07.33.11.5l.42,2c0,.19.09.39.13.58v0H4a.07.07,0,0,1,0-.05c.16-.74.31-1.49.47-2.23l.18-.84a.84.84,0,0,1,.55-.64L7,13.45h0l1.44,1.45ZM12,17s0,0,0,0c-.14-.69-.29-1.38-.43-2.06a.09.09,0,0,0-.06-.07l-1.32-.47s0,0-.06,0l0,0L8.57,16l-.05,0,0,0L6.89,14.44s0,0-.09,0l-1.28.46a.1.1,0,0,0-.08.09l-.39,1.81c0,.08,0,.16,0,.25Z"/><path class="cls-1" d="M8.53,7.78a2.19,2.19,0,0,1,.51,0A2,2,0,0,1,10.52,9a1.79,1.79,0,0,1,.16,1,1.86,1.86,0,0,1-.06.34c-.06.33-.12.66-.19,1a1.94,1.94,0,0,1-3.81,0c-.08-.4-.16-.79-.23-1.18a2.18,2.18,0,0,1,0-.51,2,2,0,0,1,.28-.86,2,2,0,0,1,1.42-1A3.46,3.46,0,0,1,8.53,7.78Zm0,.83c-.11,0-.22,0-.33,0a1.15,1.15,0,0,0-.86.63A1.12,1.12,0,0,0,7.2,10c.07.38.15.76.23,1.14a1.11,1.11,0,0,0,2.18,0c.07-.35.13-.7.2-1.05a1.14,1.14,0,0,0,0-.58,1.18,1.18,0,0,0-.93-.87C8.75,8.61,8.63,8.62,8.52,8.61Z"/><path class="cls-1" d="M13.73,6.25H12.48a1.65,1.65,0,0,1-.66-.13,1.67,1.67,0,0,1-1-1.32,1,1,0,0,1,0-.25c0-.9,0-1.8,0-2.7a.44.44,0,0,1,.38-.42.42.42,0,0,1,.46.37V4.52a.87.87,0,0,0,.88.9h2.78a.4.4,0,0,1,.32.42.41.41,0,0,1-.35.39H13.73Z"/></g></g></svg>