<svg xmlns="http://www.w3.org/2000/svg" viewBox="0 0 45 45.64"><defs><style>.cls-1{fill:#13e8be;}</style></defs><title>Asset 29</title><g id="Layer_2" data-name="Layer 2"><g id="about"><path class="cls-1" d="M21.8,29.82c-2.19,2.11-4.36,4.18-6.48,6.29a1.73,1.73,0,0,0-.3,1.15,7.43,7.43,0,0,1-5.95,7.43,10.52,10.52,0,0,1-2.69.08,1.12,1.12,0,0,1-.82-.58,1.22,1.22,0,0,1,.3-1c.94-1,1.93-2,2.92-2.93a.84.84,0,0,0,.26-1c-.87-2.45-.86-2.44-3.48-3.42a.77.77,0,0,0-1,.22C3.65,37,2.7,38,1.71,38.92c-.25.24-.76.5-1,.39a1.38,1.38,0,0,1-.64-1,7.5,7.5,0,0,1,7.66-8.51A1.48,1.48,0,0,0,9,29.35c1.88-1.91,3.79-3.8,5.68-5.69.19-.19.36-.38.58-.62l-4-4.13-8.7-9a3,3,0,0,1,.05-4.64C3.73,4.17,4.91,3.06,6.07,1.93A3,3,0,0,1,10.76,2c2.4,2.43,4.73,4.94,7.16,7.34,1.83,1.81,3.78,3.5,5.67,5.24l-.22.35.66-.63c1.81-1.81,3.62-3.6,5.4-5.42a1.67,1.67,0,0,0,.4-1A7.53,7.53,0,0,1,38.31.05a1.35,1.35,0,0,1,1,.59c.11.27-.14.8-.39,1.07-.89,1-1.84,1.91-2.8,2.82a.8.8,0,0,0-.22,1.11.59.59,0,0,1,.06.14A3.78,3.78,0,0,0,39.3,9a.9.9,0,0,0,1-.23c.93-1,1.88-1.95,2.87-2.86a1.34,1.34,0,0,1,1.08-.39,1.35,1.35,0,0,1,.58,1,7.45,7.45,0,0,1-8,8.43,1.48,1.48,0,0,0-1.23.51c-2,1.93-4,3.82-6,5.78,1.19,1.25,2.18,2.29,3.19,3.33,1.84,1.91,3.7,3.8,5.54,5.71a2.44,2.44,0,0,1,.49.71q3.07,6.72,6.12,13.44s0,0,0,.07c0,.37.08.74.11,1.11a4,4,0,0,1-1.16-.19c-1-.46-2.05-1-3.07-1.51-3.28-1.67-6.57-3.31-9.81-5.06A9.9,9.9,0,0,1,28.82,37c-2.31-2.34-4.58-4.72-6.87-7.08A.64.64,0,0,0,21.8,29.82Zm-13-19.3L32.9,35.33,35,33.07,11,8.28ZM8.38,42.87l.16.19c.13,0,.26,0,.38,0a5.86,5.86,0,0,0,4.41-6.25,1.63,1.63,0,0,1,.53-1.61c2.22-2.2,4.39-4.45,6.69-6.8l-4.31-4c-2.08,2.08-4.31,4.24-6.44,6.5a1.79,1.79,0,0,1-1.71.64,5.42,5.42,0,0,0-4,1.08,5.19,5.19,0,0,0-2.21,3.73,25.61,25.61,0,0,0,2.13-2A1.17,1.17,0,0,1,5.45,34c1.09.47,2.23.83,3.31,1.32a2,2,0,0,1,.94,1c.44,1,.75,2.09,1.16,3.12a1.18,1.18,0,0,1-.33,1.49ZM28.5,20c2.05-2,4.19-4,6.26-6.08a2,2,0,0,1,1.89-.63,5.71,5.71,0,0,0,6.44-5c-.8.82-1.51,1.53-2.19,2.26a1.16,1.16,0,0,1-1.42.34c-1.08-.43-2.2-.78-3.26-1.24a1.74,1.74,0,0,1-.84-.83c-.5-1.11-.9-2.27-1.35-3.39A1.16,1.16,0,0,1,34.33,4c.73-.68,1.42-1.4,2.13-2.11a1.43,1.43,0,0,0-.83,0,5.71,5.71,0,0,0-4.06,6,2.18,2.18,0,0,1-.75,1.95c-1.93,1.86-3.8,3.78-5.7,5.67l-.65.69ZM11.79,7.68l24,24.73,1.61-1.53L13.29,6Zm-5.19,5L30.54,37.33,32.1,36,8,11.12Zm-.68-1,6.81-6.6c-1-.94-2-1.84-3-2.71a2,2,0,0,0-2.62,0q-2.1,2-4.1,4A1.82,1.82,0,0,0,3,8.9C3.9,9.88,4.92,10.77,5.92,11.71ZM41.38,38.84c-1.08-2.25-2.23-4.62-3.46-7.19l-6.09,6.56c2,1,4.15,2.16,6.35,3.26a.83.83,0,0,0,.74,0C39.75,40.61,40.53,39.75,41.38,38.84Zm.48,1.08-2.09,2.39,3.88,1.91Z"/></g></g></svg>