<svg xmlns="http://www.w3.org/2000/svg" viewBox="0 0 60 60.18"><defs><style>.cls-1{fill:#13e8be;}</style></defs><title>Asset 26</title><g id="Layer_2" data-name="Layer 2"><g id="about"><path class="cls-1" d="M11.62,8.11c.72.07,1.58.1,2.43.24A1.52,1.52,0,0,0,16,7a22,22,0,0,1,.83-2.65Q18,1.35,21,2.6c.91.38,1.81.84,2.68,1.31a1.46,1.46,0,0,0,2.06-.49A26.63,26.63,0,0,1,27.88,1,2.64,2.64,0,0,1,32,.93,19.75,19.75,0,0,1,34.16,3.4a1.54,1.54,0,0,0,2.24.44,25.58,25.58,0,0,1,2.65-1.37c1.93-.81,3.28-.26,4.07,1.67A19.93,19.93,0,0,1,44.05,7a1.53,1.53,0,0,0,2,1.28c.79-.1,1.57-.2,2.36-.27,2.47-.21,3.85,1.18,3.64,3.66-.08.89-.16,1.78-.27,2.67a1.34,1.34,0,0,0,1.11,1.59c1,.28,1.92.54,2.84.89,2.06.78,2.68,2.24,1.81,4.27-.4.91-.88,1.79-1.36,2.66a1.48,1.48,0,0,0,.46,2.15,24.59,24.59,0,0,1,2.21,1.85c1.57,1.54,1.57,3,0,4.57a24.61,24.61,0,0,1-2.18,1.89,1.49,1.49,0,0,0-.47,2.21,25.17,25.17,0,0,1,1.27,2.48c1,2.15.38,3.56-1.82,4.4-1,.37-2,.66-2.94,1a1.17,1.17,0,0,0-.94,1.38c.09.92.18,1.84.26,2.77.21,2.48-1,3.79-3.5,3.69-.93,0-1.85-.16-2.77-.26a1.33,1.33,0,0,0-1.63,1c-.29,1-.54,1.92-.89,2.86-.8,2.12-2.26,2.73-4.34,1.82-.84-.37-1.68-.77-2.5-1.22a1.62,1.62,0,0,0-2.32.55A20.37,20.37,0,0,1,32.28,59c-1.56,1.57-3,1.58-4.56,0-.75-.76-1.42-1.58-2.11-2.4a1.28,1.28,0,0,0-1.81-.35,27.58,27.58,0,0,1-3,1.51c-1.81.72-3.08.16-3.83-1.64-.42-1-.71-2.07-1-3.12a1.35,1.35,0,0,0-1.61-1.09c-.85.11-1.7.18-2.56.26-2.57.22-3.81-.95-3.73-3.54,0-.79.15-1.58.24-2.37.15-1.33,0-1.63-1.28-2-.82-.27-1.65-.49-2.46-.78-2.33-.84-3-2.37-1.88-4.62.34-.71.75-1.39,1.1-2.09.7-1.39.63-1.64-.56-2.61a22.57,22.57,0,0,1-2.3-2,2.59,2.59,0,0,1,0-3.88,26.28,26.28,0,0,1,2.6-2.34A1.33,1.33,0,0,0,3.92,24c-.47-.87-.95-1.75-1.36-2.66-1-2.22-.39-3.59,1.9-4.46.86-.32,1.76-.59,2.65-.83a1.48,1.48,0,0,0,1.15-1.87A26.22,26.22,0,0,1,8,11.5C8,9.13,9.1,8,11.62,8.11Zm38.26,3.52c.07-1.45-.05-1.56-1.67-1.44-.78.06-1.57.17-2.36.2-2.18.08-3.14-.59-3.85-2.66-.31-.91-.58-1.84-.87-2.75a.82.82,0,0,0-1.28-.56c-.87.42-1.71.88-2.57,1.31-2,1-3.18.78-4.68-.88-.66-.75-1.29-1.52-1.94-2.28a.78.78,0,0,0-1.37,0c-.6.7-1.18,1.43-1.78,2.14-1.58,1.83-2.85,2.08-5,1-.68-.34-1.32-.75-2-1.08-1.16-.58-1.39-.49-1.81.7-.33.94-.56,1.91-.91,2.84a3,3,0,0,1-3.3,2.25c-1.1,0-2.2-.13-3.3-.23-.93-.08-1.24.39-1.16,1.24.08,1,.21,2.06.24,3.09A3.15,3.15,0,0,1,7.86,18c-.84.3-1.71.53-2.55.82-1.34.45-1.4.62-.77,1.92.29.58.61,1.16.91,1.74,1.23,2.36,1,3.57-1,5.31-.61.51-1.24,1-1.84,1.5s-.69,1.08,0,1.63S3.93,32,4.61,32.6c1.77,1.52,2,2.72,1,4.83-.35.74-.81,1.43-1.17,2.17-.53,1.08-.41,1.36.7,1.75.88.31,1.79.52,2.65.85,2,.73,2.63,1.78,2.48,3.88-.07.89-.18,1.78-.24,2.67-.07,1.06.16,1.32,1.21,1.28s2.06-.2,3.09-.22a3.09,3.09,0,0,1,3.51,2.39c.32.87.53,1.78.84,2.65.41,1.21.66,1.31,1.78.75.71-.35,1.39-.76,2.1-1.12,2.05-1,3.33-.8,4.84.93.64.72,1.23,1.48,1.86,2.21.44.51.9.58,1.38,0,.61-.74,1.24-1.48,1.86-2.21,1.46-1.7,2.75-2,4.74-1,.74.37,1.44.81,2.18,1.17,1.17.58,1.37.51,1.8-.7.29-.81.49-1.65.78-2.46.73-2.06,1.69-2.71,3.87-2.63.79,0,1.58.15,2.37.21,1.56.11,1.7,0,1.62-1.53,0-.9-.19-1.79-.21-2.68a3.2,3.2,0,0,1,2.54-3.62c.75-.26,1.51-.46,2.26-.7,1.52-.51,1.61-.7.91-2.1-.35-.71-.75-1.39-1.09-2.11-.9-1.91-.71-3,.82-4.42.73-.69,1.51-1.31,2.28-2s.72-1,0-1.59-1.48-1.23-2.21-1.86a3.3,3.3,0,0,1-1-4.5c.38-.8.87-1.56,1.26-2.36.56-1.12.48-1.32-.67-1.74s-2.09-.66-3.12-1.05a3,3,0,0,1-2-3.14C49.68,13.7,49.8,12.74,49.88,11.63Z"/><path class="cls-1" d="M29.9,23.14c2.21,0,4.41,0,6.61,0a2.27,2.27,0,0,1,1.43.58c2,2.07,3.88,4.2,5.79,6.32.82.91.8,1.23,0,2.09Q37.34,38.53,31,44.88c-.89.89-1.21.89-2.13,0q-6.39-6.39-12.79-12.77A1.2,1.2,0,0,1,16,30.15C18,28,20,25.83,22,23.71a2.09,2.09,0,0,1,1.33-.55C25.5,23.1,27.7,23.14,29.9,23.14Zm0,18.83,4.21-9.83H25.71C27.1,35.41,28.46,38.58,29.91,42ZM34,30c-.42-.91-.79-1.71-1.17-2.51-1.25-2.59-1.26-2.6-4.11-2.42-.24,0-.62.1-.71.27-.76,1.51-1.46,3-2.23,4.66ZM19.12,32.1l7.56,7.55c-1-2.34-2-4.74-3.06-7.12a1,1,0,0,0-.71-.41C21.68,32.08,20.45,32.1,19.12,32.1ZM34,25.2c.72,1.49,1.41,3,2.13,4.44a.78.78,0,0,0,.51.41c1.39,0,2.78,0,4.43,0-1.19-1.3-2.28-2.35-3.18-3.53A3.32,3.32,0,0,0,34,25.2Zm6.68,6.9c-1.32,0-2.56,0-3.79,0a1.12,1.12,0,0,0-.79.57c-.61,1.31-1.15,2.65-1.71,4-.42,1-.84,2-1.25,3C35.61,37.13,38.08,34.66,40.65,32.1ZM25.86,25.19A3.21,3.21,0,0,0,22,26.52a13.24,13.24,0,0,1-1.37,1.54l-1.83,2c1.61,0,2.94,0,4.28,0a.89.89,0,0,0,.63-.39C24.44,28.21,25.13,26.72,25.86,25.19Z"/><path class="cls-1" d="M23.48,20.55c-.14.19-.29.6-.54.67a1.34,1.34,0,0,1-1.11-.14A25.33,25.33,0,0,1,19.42,18a1.3,1.3,0,0,1,.21-1.24,1.29,1.29,0,0,1,1.25,0c.89,1,1.67,2.08,2.47,3.15C23.44,20,23.42,20.25,23.48,20.55Z"/><path class="cls-1" d="M37.5,21.4a.92.92,0,0,1-1-1.34,31.16,31.16,0,0,1,2.34-3.37c.18-.22.84-.2,1.18-.05a1,1,0,0,1,.39.9C39.69,18.8,38.84,20,38,21.2,37.89,21.34,37.62,21.36,37.5,21.4Z"/><path class="cls-1" d="M30.87,17.53a7.44,7.44,0,0,1,0,1.83c-.09.37-.55.87-.86.88a1.26,1.26,0,0,1-.93-.8,24.06,24.06,0,0,1,.05-3.89c0-.32.68-.88.89-.82a1.55,1.55,0,0,1,.93,1,7,7,0,0,1,0,1.84Z"/></g></g></svg>